<svg fill="none" height="12" viewBox="0 0 12 12" width="12" xmlns="http://www.w3.org/2000/svg"><g stroke="#fff" stroke-linejoin="round" stroke-width=".925926"><path d="m2 1.99994v8c0 .26526.10536.51956.29289.70706.18754.1876.44189.2929.70711.2929h6c.26522 0 .51957-.1053.70711-.2929.18753-.1875.29289-.4418.29289-.70706v-5.829c-.00002-.13322-.02665-.2651-.07834-.38788s-.12739-.234-.22266-.32712l-2.22-2.171c-.18682-.18267-.43771-.284969-.699-.285001h-3.78c-.26522 0-.51957.105361-.70711.292891-.18753.18754-.29289.44189-.29289.70711z" stroke-linecap="round"/><path d="m7 1.00003v2c0 .26522.10536.51957.29289.70711.18754.18753.44189.29289.70711.29289h2"/></g></svg>