<svg width="368" height="360" viewBox="0 0 368 360" fill="none" xmlns="http://www.w3.org/2000/svg">
<path d="M243.809 314.29H252.86V323.144H243.809V314.29Z" fill="#070707"/>
<path d="M77.6245 314.29H86.6755V323.144H77.6245V314.29Z" fill="#070707"/>
<path d="M243.809 41.1003H252.86V49.9539H243.809V41.1003Z" fill="#070707"/>
<path d="M77.6245 41.1003H86.6755V49.9539H77.6245V41.1003Z" fill="#070707"/>
<path d="M85.4437 46.6035H245.041C246.878 46.6035 248.368 48.0604 248.368 49.8589V315.366C248.368 317.162 246.878 318.621 245.041 318.621H85.4437C83.6052 318.621 82.1157 317.162 82.1157 315.366V49.8589C82.1157 48.0604 83.6052 46.6035 85.4437 46.6035Z" fill="white"/>
<path d="M245.041 319.598H85.4438C83.0585 319.598 81.1167 317.7 81.1167 315.367V49.8585C81.1167 47.5251 83.0585 45.6267 85.4438 45.6267H245.041C247.427 45.6267 249.369 47.5251 249.369 49.8585V315.367C249.369 317.7 247.427 319.598 245.041 319.598ZM85.4438 47.5791C84.1594 47.5791 83.1152 48.6018 83.1152 49.8585V315.367C83.1152 316.623 84.1594 317.645 85.4438 317.645H245.041C246.326 317.645 247.37 316.623 247.37 315.367V49.8585C247.37 48.6018 246.326 47.5791 245.041 47.5791H85.4438Z" fill="#070707"/>
<path d="M206.523 58.794H230.816C233.334 58.794 235.374 60.7917 235.374 63.2532C235.374 65.7174 233.334 67.7148 230.816 67.7148H206.523C204.006 67.7148 201.965 65.7174 201.965 63.2532C201.965 60.7917 204.006 58.794 206.523 58.794Z" fill="#2371B0"/>
<path d="M103.432 58.794H190.418C192.936 58.794 194.977 60.7917 194.977 63.2532C194.977 65.7174 192.936 67.7148 190.418 67.7148H103.432C100.914 67.7148 98.8735 65.7174 98.8735 63.2532C98.8735 60.7917 100.914 58.794 103.432 58.794Z" fill="#2371B0"/>
<path d="M278.65 199.949L276.757 246.534L67.2259 238.928L69.1182 192.344L278.65 199.949Z" fill="white"/>
<path d="M278.65 199.949L276.757 246.534L67.2259 238.928L69.1182 192.344L278.65 199.949Z" stroke="#7ED321" stroke-width="1.58199"/>
<path d="M93.0133 232.868L76.8122 232.282C74.3335 232.193 72.397 230.141 72.4963 227.708L73.1026 212.851C73.202 210.417 75.3 208.511 77.7787 208.601L93.9798 209.186C96.4582 209.276 98.3953 211.327 98.296 213.761L97.6896 228.618C97.5903 231.051 95.4917 232.957 93.0133 232.868ZM77.6845 210.909C76.5019 210.866 75.5014 211.775 75.4541 212.936L74.8477 227.793C74.8003 228.953 75.7238 229.932 76.9064 229.975L93.1075 230.56C94.29 230.603 95.2906 229.693 95.3379 228.533L95.9443 213.676C95.9916 212.516 95.0682 211.536 93.8856 211.494L77.6845 210.909Z" fill="#070707"/>
<path d="M125.266 234.079L109.064 233.494C106.586 233.404 104.649 231.353 104.748 228.919L105.355 214.062C105.454 211.629 107.552 209.723 110.031 209.813L126.232 210.398C128.71 210.487 130.647 212.539 130.548 214.973L129.942 229.829C129.842 232.263 127.744 234.169 125.266 234.079ZM109.936 212.12C108.754 212.077 107.753 212.987 107.706 214.147L107.1 229.004C107.052 230.165 107.976 231.143 109.158 231.186L125.36 231.771C126.543 231.814 127.543 230.905 127.59 229.744L128.197 214.888C128.244 213.727 127.321 212.748 126.138 212.705L109.936 212.12Z" fill="#070707"/>
<path d="M159.046 235.348L142.847 234.763C140.366 234.674 138.43 232.622 138.529 230.189L139.135 215.332C139.235 212.898 141.333 210.992 143.814 211.082L160.012 211.667C162.491 211.757 164.427 213.808 164.328 216.242L163.722 231.099C163.622 233.532 161.524 235.438 159.046 235.348ZM143.719 213.389C142.536 213.347 141.534 214.256 141.487 215.417L140.88 230.273C140.833 231.434 141.758 232.413 142.941 232.456L159.14 233.041C160.323 233.083 161.323 232.174 161.37 231.014L161.977 216.157C162.024 214.996 161.101 214.017 159.918 213.975L143.719 213.389Z" fill="#070707"/>
<path d="M193.092 236.627L176.891 236.042C174.412 235.953 172.476 233.901 172.575 231.467L173.181 216.611C173.281 214.177 175.379 212.271 177.857 212.361L194.058 212.946C196.537 213.036 198.474 215.087 198.375 217.521L197.768 232.378C197.669 234.811 195.571 236.717 193.092 236.627ZM177.763 214.668C176.58 214.626 175.58 215.535 175.533 216.696L174.926 231.552C174.879 232.713 175.802 233.692 176.985 233.734L193.186 234.32C194.369 234.362 195.369 233.453 195.417 232.293L196.023 217.436C196.07 216.275 195.147 215.296 193.964 215.254L177.763 214.668Z" fill="#070707"/>
<path d="M210.062 214.726L226.262 215.312C228.096 215.378 229.524 216.89 229.45 218.69L228.844 233.547C228.771 235.346 227.224 236.751 225.39 236.685L209.19 236.099C207.356 236.033 205.929 234.521 206.003 232.721L206.609 217.865C206.683 216.064 208.228 214.66 210.062 214.726Z" fill="#B8E986"/>
<path d="M243.842 215.995L260.043 216.581C261.877 216.647 263.304 218.159 263.23 219.959L262.624 234.816C262.55 236.615 261.004 238.02 259.17 237.954L242.97 237.368C241.137 237.302 239.709 235.79 239.783 233.99L240.389 219.134C240.462 217.333 242.009 215.929 243.842 215.995Z" fill="#B8E986"/>
<path d="M195.347 82.6501V190.35H69.6133V82.6501H195.347Z" fill="white"/>
<path d="M195.347 82.6501V190.35H69.6133V82.6501H195.347Z" stroke="#7ED321" stroke-width="1.58199"/>
<path d="M79.2505 96.5001H114.79C116.628 96.5001 118.118 97.9569 118.118 99.7557V141.749C118.118 143.548 116.628 145.005 114.79 145.005H79.2505C77.412 145.005 75.9229 143.548 75.9229 141.749V99.7557C75.9229 97.9569 77.412 96.5001 79.2505 96.5001Z" fill="#2371B0"/>
<path d="M188.23 100.742H124.737C124.186 100.742 123.738 100.304 123.738 99.7653C123.738 99.2259 124.186 98.7888 124.737 98.7888H188.23C188.781 98.7888 189.229 99.2259 189.229 99.7653C189.229 100.304 188.781 100.742 188.23 100.742Z" fill="#2371B0"/>
<path d="M188.23 106.405H124.737C124.186 106.405 123.738 105.968 123.738 105.429C123.738 104.889 124.186 104.453 124.737 104.453H188.23C188.781 104.453 189.229 104.889 189.229 105.429C189.229 105.968 188.781 106.405 188.23 106.405Z" fill="#2371B0"/>
<path d="M188.23 111.918H124.737C124.186 111.918 123.738 111.481 123.738 110.941C123.738 110.402 124.186 109.965 124.737 109.965H188.23C188.781 109.965 189.229 110.402 189.229 110.941C189.229 111.481 188.781 111.918 188.23 111.918Z" fill="#2371B0"/>
<path d="M188.23 117.581H124.737C124.186 117.581 123.738 117.144 123.738 116.605C123.738 116.065 124.186 115.628 124.737 115.628H188.23C188.781 115.628 189.229 116.065 189.229 116.605C189.229 117.144 188.781 117.581 188.23 117.581Z" fill="#2371B0"/>
<path d="M188.23 127.044H124.737C124.186 127.044 123.738 126.607 123.738 126.067C123.738 125.528 124.186 125.091 124.737 125.091H188.23C188.781 125.091 189.229 125.528 189.229 126.067C189.229 126.607 188.781 127.044 188.23 127.044Z" fill="#2371B0"/>
<path d="M188.23 132.707H124.737C124.186 132.707 123.738 132.271 123.738 131.731C123.738 131.191 124.186 130.755 124.737 130.755H188.23C188.781 130.755 189.229 131.191 189.229 131.731C189.229 132.271 188.781 132.707 188.23 132.707Z" fill="#2371B0"/>
<path d="M188.23 138.223H124.737C124.186 138.223 123.738 137.787 123.738 137.247C123.738 136.708 124.186 136.271 124.737 136.271H188.23C188.781 136.271 189.229 136.708 189.229 137.247C189.229 137.787 188.781 138.223 188.23 138.223Z" fill="#2371B0"/>
<path d="M188.23 143.885H124.737C124.186 143.885 123.738 143.449 123.738 142.91C123.738 142.37 124.186 141.933 124.737 141.933H188.23C188.781 141.933 189.229 142.37 189.229 142.91C189.229 143.449 188.781 143.885 188.23 143.885Z" fill="#2371B0"/>
<path d="M45.3377 176.182L37.4965 178.811L39.0371 170.824L45.3377 176.182Z" fill="#7ED321"/>
<path d="M208.545 43.4174L202.132 25.8446L220.829 29.3093L208.545 43.4174Z" fill="#7ED321"/>
<path d="M21.044 142.39L19.9739 137.611L39.1047 133.327L40.1752 138.106L21.044 142.39Z" fill="#2371B0"/>
<path d="M29.7274 147.763L25.5367 129.048L30.4213 127.954L34.6125 146.67L29.7274 147.763Z" fill="#2371B0"/>
<path d="M140.444 247.721H199.611C201.448 247.721 202.939 249.178 202.939 250.976V269.058C202.939 270.856 201.448 272.316 199.611 272.316H140.444C138.605 272.316 137.116 270.856 137.116 269.058V250.976C137.116 249.178 138.605 247.721 140.444 247.721Z" fill="#2371B0"/>
<path d="M147.964 267.075C147.964 267.075 148.339 268.825 147.692 271.544C147.176 273.716 145.568 275.785 145.568 275.785C145.568 275.785 152.213 274.35 154.002 271.544C156.026 268.368 154.594 266.019 154.594 266.019L147.964 267.075Z" fill="#2371B0"/>
<path d="M163.705 279.347H226.643C228.233 279.347 229.523 280.608 229.523 282.164V303.539C229.523 305.095 228.233 306.356 226.643 306.356H163.705C162.115 306.356 160.826 305.095 160.826 303.539V282.164C160.826 280.608 162.115 279.347 163.705 279.347Z" fill="#070707"/>
<path d="M218.202 300.6C218.202 300.6 217.81 302.521 218.485 305.504C219.024 307.886 220.701 310.158 220.701 310.158C220.701 310.158 213.767 308.583 211.9 305.504C209.786 302.019 211.281 299.438 211.281 299.438L218.202 300.6Z" fill="#070707"/>
<path d="M121.849 277.128C123.432 277.602 126.335 276.005 129.184 273.59C132.033 271.178 131.244 268.631 131.416 266.4C131.589 264.172 134.917 253.46 133.201 250.422C131.485 247.387 123.466 238.819 118.11 240.567C112.755 242.315 111.915 250.467 113.419 252.932C114.922 255.397 119.442 258.402 118.646 261.078C117.849 263.756 113.594 265.15 113.963 269.013C114.33 272.877 120.267 276.655 121.849 277.128Z" fill="#2371B0"/>
<path d="M112.952 251.876L112.932 250.313C113.169 247.829 113.605 245.956 114.378 244.111C115.076 242.444 116.082 240.654 117.777 239.84C120.275 238.642 123.049 240.293 124.706 241.323C126.242 242.276 127.418 243.132 128.866 244.334C131.451 246.481 134.372 248.986 134.756 252.795C134.984 255.046 134.289 257.136 133.773 258.862C133.259 260.588 132.409 262.571 132.252 264.48C132.104 266.292 132.761 267.799 132.717 269.554C132.655 272.157 130.992 273.577 129.465 274.801C128.983 275.188 126.086 277.6 125.757 275.756C125.621 274.995 126.409 274.571 126.801 274.311C128.28 273.326 130.005 272.161 130.539 270.491C131.013 269.001 130.319 267.065 130.272 265.415C130.227 263.849 130.603 262.688 131.016 261.304C131.374 260.106 131.718 258.898 132.094 257.515C132.438 256.257 132.903 254.67 132.836 253.339C132.663 249.816 129.64 247.539 127.556 245.782C126.378 244.79 125.391 244.003 123.865 243.026C122.789 242.335 120.845 241.095 119.126 241.452C117.476 241.795 116.446 244.139 115.862 245.787C115.18 247.707 114.563 250.156 115.016 252.243C115.379 253.915 116.724 255.147 117.728 256.315C118.647 257.383 119.929 258.813 120.106 260.389C120.374 262.752 118.821 264.144 117.713 265.3C116.987 266.057 115.952 266.942 115.686 267.798C115.113 269.645 116.001 271.674 116.813 272.667C118.125 274.274 120.344 274.821 122.172 275.991C121.574 274.662 121.118 273.881 120.997 272.555C120.562 267.81 123.696 264.451 124.702 261.181C125.406 258.89 125.286 255.66 124.271 253.698C123.751 252.697 123.093 251.972 122.042 250.925C121.433 250.318 119.639 249.245 119.814 248.28C119.881 247.92 120.081 247.653 120.535 247.556C121.529 247.346 123.02 249.125 123.621 249.735C124.486 250.609 125.45 251.756 125.986 252.767C127.177 255.018 127.399 258.869 126.633 261.55C125.789 264.503 123.497 267.031 123.03 270.512C122.46 274.762 125.346 276.601 126.67 279.522C127.588 281.548 127.639 284.17 126.625 286.229C124.927 289.679 122.04 291.369 120.961 295.085C120.119 297.986 119.879 301.147 119.758 304.67C119.706 306.229 119.57 307.247 118.663 307.223C117.632 307.194 117.698 305.954 117.764 304.499C117.926 300.904 118.304 297.28 119.095 294.585C119.701 292.516 120.551 291.116 121.687 289.672C122.805 288.251 124.083 286.983 124.885 285.274C126.15 282.578 124.821 279.59 123.393 277.867C122.904 277.917 122.789 278.235 122.133 278.142C121.742 278.085 120.846 277.55 120.261 277.252C117.132 275.652 113.639 273.761 113.578 269.191C113.544 266.562 114.793 265.559 116.17 264.145C116.954 263.34 118.126 262.088 118.12 260.866C118.114 259.856 117.46 259.193 116.893 258.473C115.329 256.49 113.326 254.606 112.952 251.876Z" fill="#070707"/>
<path d="M103.521 273.849C101.99 273.839 92.736 274.183 91.2428 270.541C89.7491 266.896 95.7527 260.306 93.5986 257.551C91.4456 254.794 88.7757 253.461 88.7041 249.465C88.6329 245.47 89.17 241.372 91.6461 240.573C94.1224 239.776 100.025 241.145 101.201 244.046C102.378 246.948 101.211 251.459 103.529 254.18C105.848 256.898 109.264 258.085 109.286 262.059C109.307 266.033 107.246 270.638 106.417 271.537C105.588 272.434 105.053 273.861 103.521 273.849Z" fill="#2371B0"/>
<path d="M101.573 272.441C100.043 271.191 98.4181 269.743 98.1788 267.011C98.0313 265.319 98.3418 263.544 98.6424 261.795C98.909 260.244 99.5363 258.19 99.2401 256.711C99.0267 255.645 98.0552 254.909 97.347 254.259C96.6753 253.64 95.7303 252.801 95.323 251.938C94.8339 250.904 93.944 246.246 95.8471 246.332C97.2509 246.394 96.564 249.739 97.0376 250.94C97.3917 251.84 98.4772 252.582 99.2625 253.389C100.039 254.188 101.016 255.232 101.232 256.623C101.49 258.278 100.942 260.137 100.636 261.839C100.239 264.045 99.7148 266.71 100.591 268.545C102.175 271.862 107.397 271.986 107.873 276.6C108.169 279.467 106.996 281.636 106.242 283.849C105.494 286.034 104.642 288.354 104.34 290.837C103.914 294.334 103.954 299.748 104.038 303.211C104.068 304.496 104.441 306.699 103.154 306.738C101.991 306.774 102.071 305.242 102.05 303.625C101.993 299.311 101.883 295.051 102.286 291.316C102.552 288.865 103.203 286.538 103.924 284.461C104.675 282.294 105.722 280.328 105.899 277.992C106.047 276.02 105.327 275.02 104.186 274.104C103.597 274.345 102.837 274.373 102.13 274.389C98.8974 274.458 94.5632 274.171 92.409 272.938C91.348 272.331 90.4558 271.339 90.3752 269.772C90.2061 266.533 92.7514 263.694 92.9729 260.234C93.2354 256.159 89.1855 254.508 87.8775 251.633C86.3473 248.275 88.0141 243.156 89.7328 241.128C90.6468 240.049 91.7964 239.382 93.4963 239.392C95.3613 239.402 97.2673 240.184 98.7024 241.088C100.101 241.972 101.525 243.164 102.268 244.433C103.698 246.882 102.862 250.684 104.111 253.202C105.345 255.692 108.221 257.301 109.645 259.78C111.659 263.286 109.349 267.739 107.726 270.483C107.344 271.129 106.813 272.353 105.889 272.261C104.395 272.114 105.346 270.545 105.92 269.592C106.248 269.05 106.78 268.117 107.089 267.494C107.813 266.036 108.805 263.865 108.412 262.009C108.131 260.683 107.032 259.459 106.039 258.456C104.064 256.457 102.078 254.69 101.493 251.215C101.152 249.184 101.401 246.881 100.486 245.366C99.7748 244.189 98.6318 243.355 97.259 242.538C96.0995 241.849 94.1603 240.937 92.5927 241.42C90.5097 242.063 89.267 246.105 89.3026 248.815C89.3488 252.331 92.4608 253.699 93.984 256.252C94.5855 257.257 95.0649 258.529 94.9664 260.211C94.8663 261.937 94.1495 263.693 93.5706 265.24C93.1154 266.46 91.9179 268.658 92.5068 270.268C92.9308 271.425 94.8652 271.873 96.3186 272.112C98.0659 272.399 99.8909 272.37 101.573 272.441Z" fill="#070707"/>
<path d="M112.525 211.031C116.565 211.102 121.737 214.212 121.715 217.307C121.693 220.399 118.998 225.901 121.082 229.818C123.167 233.734 129.312 238.971 127.796 244.916C126.281 250.859 120.868 251.784 121.491 255.864C122.116 259.946 125.419 262.795 124.608 265.402C123.797 268.01 120.758 274.884 116.157 274.878C111.556 274.873 106.417 271.664 103.174 268.386C99.9295 265.106 94.9102 258.752 99.7301 254.228C104.549 249.702 110.132 242.961 106.168 238.261C102.204 233.564 95.1801 225.124 100.607 219.829C106.034 214.534 108.484 210.957 112.525 211.031Z" fill="#2371B0"/>
<path d="M116.337 275.807C117.1 278.707 118.501 281.576 118.317 284.898C118.129 288.269 116.889 290.743 115.636 293.264C114.439 295.674 113.488 298.199 113.09 301.76C112.91 303.364 112.769 305.282 112.692 306.844C112.632 308.088 113.102 311.39 111.556 311.349C110.367 311.318 110.594 309.627 110.649 308.039C110.783 304.123 111.119 299.92 112.028 296.823C112.668 294.65 113.708 292.763 114.608 290.868C115.559 288.864 116.473 286.952 116.381 284.205C116.301 281.84 115.409 279.3 114.76 277.191C113.375 272.691 111.871 268.836 110.472 264.283C109.815 262.148 108.853 259.635 108.984 257.204C109.174 253.673 111.56 250.659 113.319 248.297C114.697 246.446 116.319 244.181 116.278 241.036C116.268 240.245 116.085 239.504 115.785 238.827C114.814 236.652 113.085 234.895 111.786 232.883C111.14 231.883 110.647 230.714 110.213 229.451C109.738 228.063 109.246 226.381 109.488 224.771C109.637 223.781 110.037 222.874 110.58 221.892C110.881 221.349 111.651 219.745 112.75 220.304C113.693 220.785 112.86 221.999 112.514 222.588C111.481 224.349 111.114 225.939 111.927 228.455C112.218 229.356 112.629 230.44 113.026 231.175C114.57 234.033 117.181 236.005 117.98 239.062C118.697 241.804 117.711 245.121 116.754 246.891C115.045 250.051 111.266 252.997 110.975 257.114C110.862 258.727 111.381 260.243 111.767 261.664C112.879 265.772 114.42 269.914 115.646 273.795C117.172 273.069 118.773 271.832 120.254 270.552C121.524 269.453 123.378 267.749 123.449 265.892C123.517 264.054 122.416 262.705 121.663 261.419C120.755 259.866 119.447 258.193 119.728 255.777C120.144 252.189 124.211 251.235 125.679 248.611C126.911 246.407 127.17 242.121 126.158 239.489C125.513 237.815 124.214 236.555 123.178 235.225C121.071 232.52 119.29 229.395 119.979 224.324C120.122 223.274 120.357 222.298 120.538 221.323C120.711 220.382 121.019 219.093 120.825 217.933C120.598 216.579 119.801 215.569 119.122 214.763C118.163 213.624 116.797 212.411 115.036 212.206C112.606 211.919 110.417 212.947 108.878 213.773C105.555 215.557 103.089 218.151 101.473 221.544C100.649 223.273 99.8785 225.912 100.295 228.003C100.558 229.327 101.383 230.394 102.134 231.432C102.893 232.482 103.667 233.537 104.366 234.468C105.841 236.434 107.671 238.811 107.913 241.46C108.234 244.955 106.696 247.31 105.228 249.499C103.742 251.716 101.771 253.663 100.727 255.803C99.6015 258.111 99.6765 262.607 100.911 264.721C101.889 266.395 104.459 268.349 106.224 269.672C106.974 270.236 107.888 270.886 108.975 271.66C109.734 272.2 111.529 272.936 111.133 274.044C110.589 275.556 108.335 273.599 107.732 273.172C106.582 272.354 105.575 271.577 104.646 270.863C102.689 269.359 100.297 267.655 99.1275 265.587C97.7342 263.121 97.5752 258.474 98.7304 255.565C99.6197 253.324 101.46 251.401 102.902 249.396C104.292 247.463 106.049 244.958 105.996 242.197C105.942 239.357 104.052 237.233 102.448 235.141C100.779 232.961 98.5593 230.716 98.2342 227.832C97.9505 225.322 98.7192 222.925 99.5404 221.109C101.861 215.99 106.805 211.156 113.151 210.338C115.614 210.022 117.891 210.914 119.421 212.219C120.975 213.545 122.755 215.768 122.889 218.234C123.074 221.65 121.474 224.172 121.82 227.95C122.252 232.648 126.494 234.931 128.008 238.816C129.441 242.495 128.796 247.533 126.96 250.092C126.222 251.126 125.146 251.977 124.074 252.861C123.131 253.641 121.778 254.856 121.661 256.276C121.544 257.682 122.757 259.337 123.444 260.486C124.422 262.124 125.891 264.397 125.255 266.977C124.727 269.131 122.995 270.709 121.47 272.034C119.819 273.471 118.237 274.63 116.337 275.807Z" fill="#070707"/>
<path d="M100.945 293.311H128.967C131.355 293.311 133.291 294.768 133.291 296.567L129.099 314.342C129.099 316.14 127.608 317.597 125.771 317.597H104.207C102.369 317.597 100.88 316.14 100.88 314.342L96.6201 296.567C96.6201 294.768 98.5564 293.311 100.945 293.311Z" fill="white"/>
<path d="M125.771 318.573H104.207C101.822 318.573 99.88 316.675 99.88 314.342L95.6501 296.789C95.6219 294.233 98.0115 292.334 100.946 292.334H128.967C131.901 292.334 134.291 294.233 134.291 296.566L130.072 314.56C130.098 316.675 128.156 318.573 125.771 318.573ZM100.946 294.287C99.1431 294.287 97.6202 295.33 97.6202 296.566L101.851 314.119C101.879 315.598 102.923 316.62 104.207 316.62H125.771C127.056 316.62 128.1 315.598 128.1 314.342L132.318 296.347C132.293 295.33 130.77 294.287 128.967 294.287H100.946Z" fill="#070707"/>
<path d="M95.5233 288.265H135.187C135.885 288.265 136.453 288.85 136.453 289.568L137.55 297.056C137.55 297.773 136.954 298.358 136.219 298.358H94.4908C93.7551 298.358 93.1602 297.773 93.1602 297.056L94.2574 289.568C94.2574 288.85 94.8238 288.265 95.5233 288.265Z" fill="white"/>
<path d="M136.219 299.334H94.4908C93.2065 299.334 92.1602 298.313 92.1602 297.056L93.2703 289.43C93.2583 288.311 94.2743 287.289 95.5234 287.289H135.187C136.436 287.289 137.452 288.311 137.452 289.568L138.538 296.918C138.55 298.313 137.504 299.334 136.219 299.334ZM95.5234 289.242C95.3792 289.242 95.2569 289.391 95.2569 289.568L94.1471 297.194C94.1587 297.235 94.3071 297.381 94.4908 297.381H136.219C136.403 297.381 136.552 297.235 136.552 297.056L135.465 289.706C135.454 289.391 135.331 289.242 135.187 289.242H95.5234Z" fill="#070707"/>
<path d="M167.607 153.497L158.235 119.287C157.76 117.55 155.935 116.518 154.16 116.985L97.9739 131.711C97.8985 131.73 97.8258 131.755 97.7528 131.78L97.4602 131.846C95.6846 132.313 93.308 134.789 93.8655 137.843L103.236 172.056C103.713 173.793 105.537 174.823 107.313 174.358L163.498 159.629C164.714 159.31 165.59 158.374 165.871 157.256C167.263 156.583 168.024 155.021 167.607 153.497Z" fill="white"/>
<path d="M106.454 175.446C104.543 175.446 102.789 174.196 102.273 172.308L92.9006 138.096C92.2124 134.341 95.012 131.478 97.2013 130.903L97.5291 130.828L153.9 116.041C155.022 115.751 156.183 115.897 157.185 116.463C158.184 117.029 158.9 117.941 159.2 119.032L168.571 153.245C169.063 155.042 168.285 156.937 166.708 157.915C166.232 159.211 165.134 160.21 163.758 160.573L107.571 175.3C107.197 175.399 106.822 175.445 106.454 175.446ZM155.026 117.849C154.824 117.849 154.618 117.874 154.418 117.927L98.2338 132.654C98.2222 132.657 97.9885 132.729 97.9772 132.732L97.6849 132.798C96.4662 133.118 94.3763 135.085 94.8473 137.671L104.201 171.803C104.534 173.019 105.827 173.737 107.053 173.415L163.24 158.687C164.06 158.47 164.696 157.833 164.901 157.024C164.969 156.744 165.162 156.508 165.426 156.381C166.418 155.902 166.927 154.796 166.643 153.75L157.272 119.539C157.11 118.951 156.725 118.46 156.186 118.154C155.827 117.952 155.429 117.849 155.026 117.849Z" fill="#070707"/>
<path d="M152.251 121.363L103.133 134.239C101.357 134.703 100.304 136.489 100.779 138.226L107.825 163.951C108.301 165.688 110.127 166.718 111.901 166.253L161.02 153.377C162.796 152.913 163.849 151.127 163.373 149.39L156.327 123.665C155.852 121.928 154.027 120.899 152.251 121.363Z" fill="#B8E986"/>
<path d="M152.251 121.363L103.133 134.239C101.357 134.703 100.304 136.489 100.779 138.226L107.825 163.951C108.301 165.688 110.127 166.718 111.901 166.253L161.02 153.377C162.796 152.913 163.849 151.127 163.373 149.39L156.327 123.665C155.852 121.928 154.027 120.899 152.251 121.363Z" fill="#2371B0"/>
<path d="M111.034 167.342C110.284 167.342 109.544 167.15 108.877 166.774C107.875 166.208 107.159 165.295 106.862 164.202L99.8154 138.479C99.5164 137.387 99.6694 136.246 100.247 135.267C100.824 134.288 101.757 133.587 102.872 133.295L151.991 120.419C154.301 119.818 156.674 121.161 157.291 123.412L164.338 149.137C164.953 151.394 163.581 153.719 161.277 154.321L112.16 167.196C111.788 167.294 111.408 167.342 111.034 167.342ZM152.51 122.306L103.39 135.182C102.79 135.34 102.288 135.716 101.976 136.243C101.665 136.77 101.583 137.385 101.743 137.974L108.79 163.699C108.95 164.286 109.337 164.777 109.874 165.081C110.416 165.386 111.045 165.467 111.641 165.31L160.76 152.434C162.002 152.11 162.74 150.857 162.41 149.641L155.364 123.917C155.034 122.708 153.756 121.982 152.507 122.307L152.51 122.306Z" fill="#070707"/>
<path d="M150.22 126.023L137.052 129.475C135.276 129.942 134.223 131.726 134.699 133.463L139.223 149.979C139.699 151.716 141.523 152.748 143.299 152.282L156.467 148.83C158.242 148.365 159.295 146.579 158.821 144.842L154.295 128.325C153.82 126.588 151.995 125.559 150.22 126.023Z" fill="white"/>
<path d="M106.949 142.853C106.506 142.853 106.103 142.565 105.985 142.127C105.844 141.606 106.16 141.071 106.693 140.933L131.13 134.589C131.669 134.454 132.209 134.762 132.35 135.283C132.492 135.804 132.176 136.339 131.643 136.478L107.206 142.821C107.119 142.843 107.034 142.853 106.949 142.853Z" fill="white"/>
<path d="M108.354 147.745C107.911 147.745 107.507 147.458 107.39 147.019C107.249 146.498 107.564 145.964 108.097 145.825L116.666 143.601C117.21 143.463 117.746 143.773 117.887 144.295C118.028 144.816 117.713 145.351 117.18 145.49L108.61 147.713C108.523 147.735 108.439 147.745 108.354 147.745Z" fill="white"/>
<path d="M120.724 144.534C120.281 144.534 119.878 144.246 119.76 143.808C119.619 143.287 119.934 142.752 120.467 142.613L132.472 139.498C133.01 139.361 133.552 139.67 133.693 140.191C133.834 140.712 133.519 141.248 132.986 141.386L120.981 144.502C120.894 144.524 120.809 144.534 120.724 144.534Z" fill="white"/>
<path d="M109.508 152.702C109.065 152.702 108.662 152.414 108.544 151.976C108.403 151.455 108.718 150.92 109.251 150.782L133.69 144.438C134.235 144.302 134.77 144.61 134.911 145.132C135.053 145.653 134.737 146.188 134.204 146.327L109.765 152.67C109.677 152.692 109.593 152.702 109.508 152.702Z" fill="white"/>
<path d="M110.871 157.943C110.428 157.943 110.024 157.655 109.906 157.217C109.765 156.695 110.081 156.161 110.613 156.022L135.053 149.679C135.59 149.538 136.133 149.851 136.274 150.373C136.415 150.893 136.099 151.428 135.567 151.567L111.127 157.91C111.04 157.932 110.956 157.943 110.871 157.943Z" fill="white"/>
<path d="M191.156 162.927C191.115 162.804 190.957 162.693 190.668 162.612L170.497 156.844C169.472 156.549 167.203 156.692 165.427 157.156L109.242 171.884C108.284 172.135 107.666 172.43 107.461 172.692C106.587 173.719 107.948 176.619 108.845 176.874L129.022 182.633C130.046 182.925 132.316 182.785 134.092 182.321L190.299 167.587C191.925 167.159 191.948 163.728 191.156 162.927Z" fill="white"/>
<path d="M130.5 183.764C129.83 183.764 129.215 183.706 128.739 183.57L108.563 177.812C107.455 177.496 106.689 175.904 106.414 175.013C106.027 173.778 106.126 172.731 106.692 172.067C106.8 171.928 107.208 171.406 108.983 170.941L165.167 156.212C166.864 155.768 169.402 155.51 170.778 155.907L190.947 161.675C191.529 161.837 191.836 162.119 191.994 162.384C192.727 163.296 192.814 165.131 192.456 166.396C192.132 167.536 191.459 168.293 190.558 168.53L134.35 183.264C133.243 183.554 131.77 183.764 130.5 183.764ZM169.027 157.667C168.078 157.667 166.817 157.803 165.683 158.099L109.501 172.827C108.66 173.047 108.294 173.257 108.224 173.319C108.198 173.361 108.129 173.599 108.231 174.093C108.417 174.987 108.968 175.825 109.195 175.965L129.3 181.695C130.049 181.911 132.095 181.833 133.835 181.378L190.04 166.643C190.198 166.602 190.37 166.361 190.488 166.014C190.806 165.083 190.636 163.858 190.429 163.598C190.389 163.554 170.215 157.781 170.215 157.781C169.956 157.706 169.536 157.667 169.027 157.667Z" fill="#070707"/>
<path d="M117.396 171.737L165.035 159.173C166.541 158.775 168.371 158.623 169.125 158.834L183.981 162.978C184.735 163.19 184.126 163.681 182.621 164.079L134.98 176.643C133.476 177.041 131.644 177.193 130.891 176.982L116.035 172.837C115.281 172.626 115.89 172.135 117.396 171.737Z" fill="#2371B0"/>
<path d="M339.774 308.866C337.155 302.479 328.562 281.919 326.534 280.075C324.505 278.232 320.766 278.797 319.308 279.212C317.85 279.627 314.278 282.456 314.278 282.456L310.451 281.099C310.451 281.099 310.033 278.111 308.623 277.203C307.213 276.294 302.332 274.465 298.943 271.876C295.555 269.288 290.518 264.78 290.518 264.78C290.518 264.78 291.446 261.309 288.019 253.781C284.592 246.254 276.293 230.255 276.293 230.255C276.293 230.255 273.834 212.941 273.286 208.164C272.739 203.388 270.941 193.69 268.699 186.635C266.455 179.579 263.686 170.387 263.686 170.387C263.686 170.387 265.037 141.555 262.777 136.759C260.515 131.961 256.276 128.441 252.198 127.071C248.118 125.699 247.788 125.483 246.321 122.115C244.853 118.744 244.11 115.828 244.11 115.828L244.573 112.457L250.21 108.003C250.21 108.003 254.702 106.229 254.473 104.143C253.981 99.655 251.169 97.2927 251.169 97.2927C251.169 97.2927 251.834 93.733 250.161 91.4268C248.49 89.1201 248.876 87.8799 247.25 88.2838C245.626 88.6875 243.048 88.7647 243.048 88.7647C243.048 88.7647 237.389 83.0182 233.944 84.9389C230.499 86.8602 230.603 87.8717 230.603 87.8717C230.603 87.8717 225.963 85.2555 224.633 87.7505C223.304 90.2449 224.305 93.2152 224.305 93.2152C224.305 93.2152 223.193 94.8535 223.991 95.8389C224.787 96.8248 225.656 97.0494 225.656 97.0494C225.656 97.0494 225.813 98.7693 224.551 101.835C223.287 104.899 223.705 106.406 222.38 106.644C221.054 106.882 220.285 106.997 220.854 108.385C221.422 109.773 222.522 110.455 222.522 110.455C222.522 110.455 223.348 115.216 226.467 116.287C229.584 117.36 233.934 115.866 235.254 118.972C236.574 122.075 236.254 125.629 236.254 125.629C236.254 125.629 228.006 126.406 223.9 128.224C219.793 130.042 217.072 133.183 217.072 133.183L213.612 132.038L204.762 114.366L202.753 106.004C202.753 106.004 202.67 102.052 201.698 99.4189C200.727 96.7884 199.803 94.3776 199.299 94.8801C198.794 95.3826 199.15 99.7905 199.15 99.7905C199.15 99.7905 197.063 94.7522 195.395 93.4673C193.727 92.1824 191.962 91.1862 191.316 92.2124C190.671 93.239 192.458 98.9167 192.458 98.9167C192.458 98.9167 191.196 97.3628 188.99 96.0516C186.784 94.743 184.526 92.9283 183.721 94.0455C182.915 95.1652 183.481 96.4686 185.05 97.7503C186.618 99.0328 188.242 99.7309 188.242 99.7309C188.242 99.7309 191.421 106.856 189.762 107.965C188.102 109.073 186.618 109.621 185.647 108.566C184.674 107.511 183.976 105.192 182.444 105.265C180.91 105.34 178.994 106.728 180.964 109.381C182.931 112.03 185.21 114.079 188.175 115.993C191.139 117.906 193.085 117.852 193.085 117.852C193.085 117.852 198.791 134.116 200.238 138.281C201.685 142.445 201.757 143.491 202.755 144.388C203.753 145.284 206.591 147.463 206.591 147.463L194.19 167.705L178.907 167.885L166.763 164.699C166.763 164.699 161.946 161.644 160.648 162.42C159.349 163.198 157.828 165.671 157.605 170.133C157.38 174.593 157.287 180.336 158.402 181.777C159.515 183.214 162.725 184.923 162.622 183.076C162.519 181.231 161.571 179.861 161.571 179.861L162.536 177.539C162.536 177.539 170.605 180.491 173.174 180.083C175.741 179.677 176.99 178.866 176.99 178.866C176.99 178.866 193.672 183.611 200.146 181.503C206.618 179.395 220.701 160.404 220.701 160.404L228.141 188.055L212.695 268.137C212.695 268.137 214.753 282.261 225.188 283.095C235.623 283.927 237.899 280.077 241.178 277.724C244.455 275.369 259.546 261.765 259.546 261.765C259.546 261.765 270.398 281.221 281.098 289.012C291.798 296.805 303.1 301.001 305.405 300.929C307.709 300.855 310.063 297.872 310.063 297.872L314.597 301.967C314.597 301.967 318.922 312.071 322.833 316.225C326.747 320.376 335.649 323.767 338.528 321.535C341.407 319.3 342.395 315.252 339.774 308.866ZM246.748 242.82L251.07 227.656L253.482 238.535L246.748 242.82Z" fill="white"/>
<path d="M232.875 109.23L237.238 112.629L236.895 115.921L244.681 115.183L244.489 111.904L249.155 108.84L251.722 106.879L255.321 105.099C255.321 105.099 255.708 102.444 254.792 100.546C253.874 98.6473 252.264 96.4809 252.264 96.4809C252.264 96.4809 253.981 90.4152 249.353 88.7705C244.724 87.1259 244.188 88.7293 244.188 88.7293C244.188 88.7293 240.706 83.6996 236.978 84.2878C233.251 84.8783 232.384 87.8027 232.384 87.8027C232.384 87.8027 226.297 84.6437 224.702 87.9287C223.107 91.2165 224.871 92.7343 224.871 92.7343C224.871 92.7343 223.653 95.2134 224.855 95.9768C226.056 96.7426 228.296 96.1368 228.296 96.1368C228.296 96.1368 230.087 106.756 231.344 105.947C232.6 105.137 232.12 101.6 232.12 101.6C232.12 101.6 235.611 100.053 236.089 102.542C236.567 105.034 232.875 109.23 232.875 109.23Z" fill="#070707"/>
<path d="M234.325 83.5682L235.436 83.4062C239.016 83.6041 241.656 85.0715 243.58 87.5034C245.533 87.1912 247.376 86.9374 248.7 87.7467C249.656 88.3328 250.322 89.4474 250.94 90.4588C252.041 92.2652 253.119 94.2076 252.436 96.4513C254.023 98.2915 256.203 102.224 254.723 105.299C254.398 105.975 253.897 106.324 253.341 106.69C252.761 107.071 252.098 107.218 251.354 107.64C250.853 107.928 250.476 108.591 249.983 109.097C248.598 110.516 246.844 111.766 245.028 112.791C244.376 114.748 245.204 116.719 245.93 119.266C246.48 121.195 246.91 123.032 247.848 124.139C251.815 125.762 255.867 126.889 258.854 129.403C261.934 131.997 263.658 136.436 264.516 141.79C264.92 144.307 264.926 146.868 264.932 149.393C264.948 155.459 264.839 161.45 264.688 167.464C264.657 168.647 264.461 169.867 264.582 170.979C264.703 172.1 265.232 173.322 265.619 174.527C266.691 177.856 267.805 181.55 268.927 184.745C270.502 189.222 272.248 193.525 273.263 198.448C274.327 203.603 274.741 208.979 275.32 214.2C275.73 217.882 276.195 221.893 276.575 225.777C276.701 227.072 276.648 228.635 276.989 229.613C277.151 230.075 277.928 230.66 278.313 231.205C279.497 232.872 280.61 235.07 281.572 236.937C285.011 243.603 288.108 250.503 290.85 258.111C291.637 260.295 292.693 263.095 291.826 265.036C295.878 268.574 300.278 271.854 305.244 274.508C307.468 275.697 309.997 276.517 311.014 279.216C312.241 279.211 313.292 279.208 314.503 279.303C314.923 279.334 315.282 279.456 315.72 279.389C316.279 279.303 316.672 278.944 317.15 278.717C318.685 277.995 320.416 277.785 322.302 277.902C324.297 278.024 326.584 278.444 327.972 279.914C328.798 280.788 329.418 282.334 330.04 283.641C334.35 292.703 338.389 302.951 341.664 313.194L341.705 313.452C341.947 317.657 340.909 321.226 337.325 322.412C335.297 323.084 333.155 322.858 331.322 322.497C325.837 321.413 322.467 318.077 319.674 313.229C317.812 309.994 316.145 306.529 314.612 303.333C314.57 303.246 314.556 303.208 314.515 303.147C313.918 302.294 312.957 301.537 312.197 300.777C311.377 299.96 310.499 299.248 309.812 298.416C309.199 299.146 308.831 299.812 308.121 300.379C306.247 301.879 304.008 300.964 301.967 300.352C297.964 299.153 294.377 297.714 290.975 296.012C277.215 289.118 266.769 276.384 259.169 262.335C253.062 267.725 246.854 273.814 240.187 279.041C237.894 280.839 235.48 282.537 231.974 283.278C224.053 284.952 218.458 282.791 215.15 278.003C213.415 275.489 211.915 272.235 211.725 268.725C211.631 267.014 211.761 265.359 211.928 263.741C212.09 262.18 212.247 260.611 212.51 259.032C213.5 253.091 214.779 247.121 215.995 241.15C219.475 224.064 223.067 207.144 226.517 190.005C226.686 189.162 227 188.341 226.959 187.761C226.892 186.813 226.403 185.596 226.105 184.518C224.033 177.021 221.814 169.313 219.884 161.973C219.083 162.548 218.568 163.424 217.963 164.168C216.031 166.548 214.155 168.886 212.206 171.217C209.62 174.311 207.232 177.722 203.955 180.216C202.089 181.635 200.16 182.631 197.517 183.005C195.046 183.35 192.591 182.926 190.223 182.548C186.866 182.013 183.609 181.017 180.487 180.203C179.436 179.93 178.333 179.533 177.275 179.35C176.714 179.253 175.788 179.986 175.333 180.162C174.696 180.409 173.99 180.645 173.359 180.782C171.697 181.133 170.62 180.897 169.306 180.512C168.128 180.168 167 179.779 165.911 179.357C164.86 178.947 163.873 178.323 162.702 178.107C162.613 178.537 162.499 178.947 162.29 179.289C162.644 180.444 163.791 180.942 163.733 182.449C163.684 183.685 161.767 184.605 160.291 184.337C158.107 183.94 156.531 180.932 156.483 178.089C156.468 177.269 156.735 176.507 156.762 175.67C156.787 174.928 156.689 174.09 156.706 173.233C156.74 171.557 156.9 169.971 157.006 168.432C157.069 167.543 156.941 166.739 157.146 165.969C157.587 164.329 158.646 162.514 159.943 161.729C161.287 160.915 162.962 161.491 164.194 161.969C165.406 162.438 166.445 163.12 167.508 163.468C169.194 164.018 171.381 164.374 173.293 164.935C174.203 165.201 175.156 165.519 176.103 165.779C177.103 166.057 178.143 166.442 179.033 166.542C180.218 166.675 181.546 166.554 182.773 166.525C186.684 166.43 190.233 166.274 194.163 166.252C198.143 160.137 201.933 153.881 205.83 147.706C203.921 146.406 201.752 145.157 200.695 142.773C199.634 140.382 198.743 137.593 197.813 134.804C195.999 129.369 194.111 123.634 192.423 118.284C188.214 117.531 183.998 114.74 181.279 111.32C180.218 109.986 178.917 107.803 179.323 105.791C179.803 103.423 183.611 103.828 184.884 105.445C185.27 105.934 185.428 106.793 185.827 107.154C186.387 107.666 187.559 107.779 188.291 107.522C189.958 106.94 189.067 104.583 188.482 102.87C188.123 101.818 187.773 100.493 187.418 99.9869C187.208 99.6856 186.682 99.3657 186.272 99.0964C185.161 98.3662 183.457 97.5199 182.827 96.3628C181.579 94.079 182.861 91.8161 185.292 92.5681C186.921 93.0713 188.615 94.1602 190.046 95.1109C190.146 95.1782 190.484 95.6776 190.545 95.3022C190.601 94.96 190.251 94.2679 190.177 93.838C189.891 92.2089 190.294 91.1958 191.819 91.1528C194.298 91.088 196.538 93.2814 197.715 94.9848C198.151 94.7092 198.286 93.942 199.138 93.8524C200.88 93.6681 202.068 96.7385 202.643 98.6266C203.031 99.8986 203.274 101.063 203.363 102.286C203.45 103.447 203.259 104.67 203.389 105.782C203.537 107.037 204.068 108.393 204.423 109.728C204.782 111.081 204.984 112.498 205.38 113.619C205.901 115.091 206.845 116.589 207.563 118.055C209.747 122.523 212.015 127.171 214.12 131.433C214.639 131.729 215.372 131.734 215.833 132.111C219.215 127.098 227.589 125.718 235.755 124.185C235.221 121.93 235.01 119.383 233.661 118.213C232.51 117.217 230.443 117.657 228.555 117.636C225.844 117.608 223.488 115.354 222.611 113.089C222.211 112.055 221.186 109.237 222.774 109.101C223.555 109.032 223.769 109.749 223.958 110.646C224.467 113.057 225.69 114.988 227.42 115.558C228.58 115.94 230.063 115.627 231.247 115.658C232.573 115.697 233.674 115.863 234.588 116.493C236.351 117.707 236.937 120.288 237.59 123.125C240.087 122.464 242.898 122.363 244.956 122.776C244.249 120.748 243.657 118.56 243.062 116.381C241.627 116.588 240.329 116.809 238.935 116.915C237.739 117.01 236.208 117.271 235.459 116.498C234.498 115.509 235.344 113.934 235.02 112.929C234.786 112.203 233.795 111.582 233.121 111.092C232.59 110.706 231.321 110.003 231.102 109.34C230.628 107.893 232.315 107.133 233.139 106.201C233.433 105.871 233.75 105.326 233.988 104.823C234.527 103.685 234.674 102.798 233.499 102.187C233.134 101.996 232.388 101.852 232.56 102.585C232.675 103.072 232.835 102.677 233.275 102.877C234.398 103.387 233.443 104.725 232.197 104.488C231.901 105.459 231.82 106.807 230.568 106.84C228.722 106.89 227.561 101.003 227.561 101.003C227.561 101.003 227.29 99.6068 227.088 98.8935C226.763 98.8587 226.744 99.2527 226.583 99.4959C226.02 100.335 225.427 101.137 225.072 102.159C224.569 103.599 224.395 105.227 223.701 106.124C223.145 106.846 219.965 108.817 219.857 106.752C219.799 105.633 221.49 105.71 222.112 104.969C222.807 102.604 223.663 100.158 224.918 98.2847C225.073 98.0527 225.433 97.8563 225.338 97.5633C223.814 97.5812 222.891 96.5736 223.173 94.9044C223.24 94.5108 223.559 93.9732 223.499 93.6029C223.42 93.1082 222.851 92.6804 222.729 92.1299C222.221 89.8454 223.094 87.5963 224.643 86.5652C226.287 85.4728 228.869 85.3484 231.084 86.2869C232.06 85.3044 232.806 84.1559 234.325 83.5682ZM243.251 111.729C243.508 111.263 244.576 110.835 245.187 110.457C246.646 109.548 247.585 108.629 248.604 107.58C249.119 107.049 249.612 106.362 250.16 106.032C251.203 105.407 252.336 105.396 252.87 104.58C253.323 103.883 253.247 102.745 253.099 101.837C252.867 100.415 252.218 99.4993 251.58 98.6224C251.176 98.0682 250.571 97.5308 250.452 97.0046C250.259 96.1551 250.784 95.2736 250.616 94.2734C250.462 93.3612 249.837 92.2604 249.28 91.3616C248.222 89.6561 247.542 88.9857 245.317 89.1652C244.512 89.233 243.705 89.6418 242.966 89.5082C242.301 89.3883 241.914 88.5416 241.38 87.9567C240.906 87.4373 240.145 86.7556 239.674 86.4875C238.69 85.9278 236.911 85.3024 235.551 85.371C234.232 85.4385 233.849 86.2076 233.199 86.9678C232.823 87.4093 232.331 88.2589 231.752 88.3706C231.217 88.4712 230.351 88.0712 229.809 87.9261C228.285 87.5179 225.785 87.3561 224.961 88.9623C224.661 89.5493 224.385 90.866 224.688 91.8441C224.867 92.4235 225.44 92.4824 225.579 93.2323C225.754 94.1815 225.053 94.4835 225.082 95.5512C226.085 95.9833 227.68 95.1449 228.408 95.8592C228.947 96.3912 229.007 98.5041 229.289 99.6944C229.645 101.196 230.048 102.428 230.335 103.306C230.747 102.092 230.79 100.393 232.146 100.006C233.309 99.6716 234.641 100.465 235.324 101.06C235.924 101.583 236.409 102.336 236.436 103.409C236.491 105.602 234.58 107.591 233.272 108.692C235.014 110.083 237.779 111.627 236.961 115.025C238.659 115.169 240.819 114.691 242.816 114.435C243.122 113.54 242.863 112.436 243.251 111.729ZM196.883 103.562C195.32 103.937 195.646 102.11 195.589 100.909C195.548 100.09 195.414 99.1798 195.251 98.3832C194.793 96.1415 194.087 93.1978 192.139 93.1551C192.113 93.0791 192.06 93.1267 192.009 93.1741C192.287 94.315 192.647 95.5417 193.118 97.1733C193.503 98.5104 195.061 101.539 193.309 101.705C192.41 101.789 191.82 100.167 191.424 99.5343C189.689 96.7631 187.16 95.357 184.377 94.3547C184.369 95.8639 185.556 96.2942 186.388 96.9011C187.178 97.4739 188.473 97.9505 189.027 98.762C189.617 99.6255 189.904 100.953 190.294 102.077C190.701 103.254 191.237 104.546 191.286 105.765C191.352 107.401 190.244 109.07 188.667 109.45C186.524 109.964 183.811 108.874 183.33 106.595C182.738 106.318 182.19 105.984 181.312 106.098C181.259 108.735 182.683 110.115 183.965 111.389C185.807 113.225 187.767 114.787 190.269 115.691C191.269 116.051 193.505 116.271 194.032 117.057C194.363 117.549 194.46 118.306 194.669 118.946C195.313 120.926 195.965 122.817 196.546 124.814C198.684 122.685 202.585 120.696 206.832 121.004C206.052 118.891 204.424 116.723 203.548 114.283C203.096 113.02 202.844 111.526 202.474 110.079C202.118 108.693 201.533 107.217 201.398 105.875C201.287 104.762 201.548 103.57 201.439 102.369C201.233 100.123 200.515 98.0517 199.475 96.3784C199.761 97.7556 199.952 99.5203 200.058 100.853C200.15 101.989 200.595 103.154 199.452 103.32C197.551 103.597 198.325 99.0092 197.265 98.0221C197.439 99.869 198.373 103.203 196.883 103.562ZM211.506 130.561C210.683 128.898 210.022 127.544 209.228 125.94C208.849 125.175 208.54 124.118 208.05 123.601C207.177 122.676 205.21 122.858 203.965 123.139C200.963 123.814 198.489 125.084 197.396 127.201C198.6 130.927 199.919 135.118 201.27 138.857C201.731 140.131 202.131 141.539 202.73 142.543C203.704 144.179 205.552 145.043 206.855 146.17C208.757 143.01 210.874 139.84 212.836 136.774C213.502 135.737 214.238 134.737 214.743 133.656C212.73 133.576 212.339 132.244 211.506 130.561ZM266.841 184.653C265.768 181.504 264.673 178.019 263.659 174.813C263.297 173.669 262.704 172.322 262.623 171.265C262.487 169.489 262.677 167.53 262.723 165.635C262.856 159.992 262.971 154.219 262.949 148.69C262.934 144.898 262.563 140.54 261.306 136.776C260.104 133.175 258.13 130.775 255.278 129.199C252.585 127.71 249.904 127.425 247.212 126.015C246.725 125.759 246.333 125.198 245.776 124.97C244.972 124.641 243.829 124.511 242.691 124.495C241.404 124.474 239.17 124.455 238.032 125.042C237.598 125.265 237.592 125.707 237.1 125.904C236.361 126.201 235.34 126.248 234.442 126.424C228.297 127.626 221.798 128.644 218.488 131.988C217.871 132.609 217.309 133.501 216.783 134.284C215.161 136.689 213.59 139.287 212.079 141.641C206.26 150.704 200.781 159.573 195.024 168.702C194.497 169.537 193.927 170.876 193.102 170.9C192.595 170.911 192.282 170.545 192.195 170.239C191.933 169.33 193.043 168.664 192.874 168.223C191.517 168.218 190.529 168.263 189.274 168.286C188.256 168.305 186.53 168.104 185.618 168.423C184.207 168.918 183.668 171.764 183.494 173.093C183.31 174.476 183.224 178.149 184.466 179.162C184.807 179.439 185.659 179.521 186.148 179.641C187.965 180.087 189.742 180.471 191.467 180.716C193.959 181.068 196.504 181.577 199.395 180.55C203.784 178.992 206.78 174.721 209.213 171.721C214.101 165.688 218.604 160.16 223.514 154.176C224.238 153.296 224.834 151.89 225.741 151.805C226.087 151.772 226.686 152.019 226.801 152.576C226.938 153.241 226.052 154.096 225.653 154.593C224.111 156.515 222.584 158.283 221.324 160.11C223.519 167.805 225.844 176.334 228.064 184.232C228.394 185.4 228.92 186.765 228.97 187.797C229.01 188.597 228.667 189.674 228.48 190.578C227.902 193.378 227.276 196.161 226.728 198.826C233.37 195.494 242.182 195.967 249.588 195.889C257.405 195.807 264.73 196.139 271.083 197.776C270.122 193.009 268.313 188.968 266.841 184.653ZM178.68 168.51C177.812 168.394 176.744 167.972 175.739 167.682C173.702 167.1 171.774 166.461 169.783 165.976C168.718 165.715 167.614 165.646 166.668 165.308C164.946 164.689 163.356 163.166 161.323 163.245C160.794 163.268 160.379 164.021 160.107 164.415C159.826 164.82 159.456 165.26 159.553 165.553C160.926 164.904 165.425 163.991 165.654 165.653C165.842 167.022 164.105 166.617 162.948 166.708C161.033 166.858 159.118 167.486 159.06 168.729C159.877 168.223 164.738 166.37 164.706 168.498C164.686 169.833 161.581 169.545 160.298 170.199C159.49 170.613 158.581 171.459 158.648 172.421C158.939 172.344 159.312 171.943 159.677 171.742C160.763 171.15 164.22 169.976 164.408 171.648C164.568 173.068 161.799 172.745 160.554 173.464C158.828 174.464 158.142 176.999 158.549 179.306C158.827 180.884 160.006 182.99 161.69 182.216C161.474 181.223 160.518 180.852 160.306 179.843C160.124 178.974 160.619 178.286 160.869 177.515C161.148 176.653 161.292 175.922 161.927 175.774C162.532 175.636 163.632 176.254 164.325 176.549C165.194 176.919 165.919 177.202 166.611 177.47C169.05 178.413 171.013 179.67 173.943 178.582C173.769 178.321 173.252 178.174 173.189 177.635C173.008 176.068 175.036 176.78 175.967 177.03C177.904 177.551 180.413 178.177 181.969 178.599C180.794 174.569 181.556 171.015 182.878 168.426C181.534 168.313 180.174 168.708 178.68 168.51ZM244.418 197.832C241.121 197.917 237.634 197.794 234.474 198.357C231.376 198.909 228.907 200.166 226.23 201.145C222.549 219.397 218.543 237.712 215.101 256.012C214.593 258.718 214.234 261.376 213.936 264.174C213.619 267.153 213.523 269.871 214.756 273.04C216.871 278.477 220.462 281.693 226.603 281.882C229.422 281.967 233.257 281.343 235.645 279.903C237.753 278.631 239.741 276.92 241.664 275.326C247.463 270.516 252.919 265.343 258.25 260.354C257.492 260.106 256.721 259.71 256.062 259.22C252.092 256.276 248.637 250.179 248.57 243.335C240.481 249.11 231.612 255.035 223.447 260.937C222.662 261.505 221.261 262.498 220.987 261.032C220.801 260.029 222.823 258.999 223.521 258.484C224.639 257.657 225.703 257.065 226.658 256.373C232.767 251.957 238.99 247.664 245.035 243.39C247.93 232.831 250.828 221.982 253.746 211.401C254.003 210.47 254.361 207.284 255.619 207.231C256.774 207.182 256.528 208.549 256.342 209.239C254.999 214.197 253.82 218.697 252.483 223.541C252.258 224.359 251.8 225.368 251.8 225.954C251.801 226.772 252.183 227.741 252.366 228.647C252.943 231.506 253.398 234.367 253.982 237.064C257.264 234.778 261.279 232.171 264.906 229.725C266.166 228.875 267.363 227.851 268.959 227.481C270.796 227.056 272.692 227.474 273.914 227.947C274.267 228.085 274.643 228.332 274.826 228.21C273.812 218.86 273.089 209.425 271.479 199.832C263.739 197.802 253.942 197.59 244.418 197.832ZM247.617 241.56C249.136 240.441 250.841 239.457 252.232 238.244C251.641 235.692 251.24 232.882 250.634 230.352C249.633 234.091 248.547 237.769 247.617 241.56ZM265.617 235.831C266.286 235.875 267.324 235.781 267.79 236.04C268.181 236.259 268.694 237.372 269.057 238.101C271.441 242.902 273.597 247.284 275.948 251.895C276.356 252.696 276.97 253.636 277.06 254.243C277.163 254.951 276.805 255.956 276.669 256.811C276.53 257.676 276.3 258.617 276.44 259.552C276.642 260.897 277.454 261.919 277.803 263.052C279.047 263.901 280.099 264.884 281.459 265.426C283.232 266.132 289.259 266.552 290.093 264.232C290.491 263.127 289.737 260.931 289.282 259.594C286.245 250.661 282.567 242.87 278.528 235.466C277.828 234.18 277.232 232.831 276.416 231.878C275.084 230.317 271.776 228.471 269.018 229.521C266.368 230.529 264.336 232.692 261.793 234.075C262.728 235.466 263.814 235.707 265.617 235.831ZM260.109 235.246C258.344 236.473 256.58 237.697 254.815 238.925C254.553 241.718 255.143 244.845 256.116 247.455C257.058 249.983 258.343 252.421 260.276 253.388C261.477 253.036 262.603 253.442 263.928 253.648C264.932 253.803 266.008 253.806 266.741 254.096C267.369 254.348 268.126 255.19 268.739 255.721C270.604 257.331 272.379 258.93 274.226 260.338C274.332 260.418 274.475 260.703 274.659 260.54C274.322 258.946 274.462 258.01 274.657 256.773C274.773 256.041 275.123 255.114 275.024 254.473C274.939 253.922 274.368 253.071 274.019 252.374C271.578 247.509 269.019 242.587 266.743 237.846C263.797 237.968 261.583 237.105 260.109 235.246ZM252.649 240.429C252.098 240.926 251.322 241.261 250.996 241.792C250.446 242.695 250.427 244.059 250.554 245.292C250.99 249.504 253.528 253.948 255.621 256.048C256.407 255.498 257.353 255.063 258.189 254.55C255.179 251.835 252.886 246.136 252.649 240.429ZM292.227 267.952C291.673 267.512 291.156 266.947 290.486 266.686C287.579 268.286 283.408 268.183 281.031 267.338C279.668 266.854 278.26 265.838 276.962 264.893C273.673 262.501 270.781 260.103 267.745 257.451C267.113 256.898 266.483 256.165 265.899 255.936C265.135 255.636 264.089 255.727 263.358 255.514C263.394 257.994 262.297 259.647 260.606 260.871C270.333 278.953 283.143 292.878 302.189 298.405C300.628 294.771 300.421 290.533 300.825 286.976C301.303 282.771 302.584 278.922 305.183 276.631C300.448 274.37 296.221 271.122 292.227 267.952ZM304.663 280.474C302.908 284.367 302.095 288.945 303.088 294.839C304.505 294.814 305.499 295.357 306.802 295.486C304.859 290.461 305.08 284.519 307.191 281.227C306.34 280.987 305.329 280.962 304.663 280.474ZM328.725 319.638C330.826 320.605 333.759 321.325 336.251 320.722C339.199 320.005 340.203 316.782 339.714 313.543C339.5 312.133 338.843 310.606 338.347 309.185C335.375 300.673 332.176 292.614 328.497 284.858C327.885 283.567 327.241 282.015 326.516 281.249C325.166 279.827 321.423 279.419 318.695 280.013C317.455 280.281 316.435 281.108 315.581 281.853C314.805 282.532 313.91 283.368 313.787 284.426C313.612 285.942 314.343 287.76 314.947 288.749C315.481 289.621 316.306 290.284 316.974 290.964C317.668 291.67 318.593 292.331 319.056 293.106C319.845 294.427 320.361 296.435 320.897 297.923C322.173 301.459 323.214 304.132 324.527 307.633C324.959 308.786 326.481 311.723 325.705 312.482C324.755 313.408 322.228 312.538 321.475 312.374C323.204 315.639 325.411 318.114 328.725 319.638ZM309.364 296.038C310.528 296.234 311.161 297.037 311.917 297.78C312.38 298.236 312.828 298.771 313.286 299.23C314.17 300.118 315.486 301.093 316.145 302.051C316.782 302.98 317.288 304.296 317.813 305.376C318.328 306.431 318.709 307.713 319.396 308.578C319.694 308.953 320.348 309.329 320.92 309.744C321.793 310.377 322.55 310.848 323.641 310.865C321.555 305.279 319.45 299.717 317.405 294.072C315.354 292.446 312.533 289.598 311.969 286.012C311.762 284.697 311.941 283.421 312.496 282.635C312.659 282.401 313.042 282.181 312.927 281.976C311.927 281.725 310.615 281.899 309.547 281.743C306.675 284.409 307.038 291.692 309.364 296.038Z" fill="#070707"/>
<path d="M228.554 108.491C229.065 108.317 229.75 108.432 229.823 109.299C229.901 110.217 227.874 112.705 226.765 112.789C226.283 112.827 225.802 112.522 225.703 112.017C225.557 111.284 226.471 110.841 226.915 110.384C227.563 109.721 227.796 108.747 228.554 108.491Z" fill="#070707"/>
<path d="M273.104 200.116C273.104 200.116 269.109 198.399 257.954 197.56C246.799 196.718 237.389 196.991 234.769 197.959C232.149 198.928 226.345 200.577 226.345 200.577L228.238 188.986L220.449 160.48C220.449 160.48 206.998 176.575 204.537 179.074C202.077 181.572 198.507 183.026 193.078 182.397C187.649 181.769 184.117 179.997 184.117 179.997C184.117 179.997 181.938 177.245 182.708 173.717C183.479 170.192 185.076 168.015 185.076 168.015L194.889 167.379L207.646 146.663C207.646 146.663 203.481 146.548 201.939 142.001C200.399 137.454 196.362 126.867 196.362 126.867C196.362 126.867 198.108 124.071 202.423 122.876C206.737 121.681 208.839 123.197 208.839 123.197L214.488 132.101L216.66 133.108C216.66 133.108 219.099 128.548 224.09 128.056C229.081 127.563 236.871 125.864 236.871 125.864L237.721 124.481C237.721 124.481 241.57 123.901 243.338 123.993C245.105 124.088 247.163 124.032 247.163 124.032C247.163 124.032 249.173 126.139 252.281 127.124C255.39 128.11 261.422 130.494 263.11 136.994C264.799 143.494 263.974 171.605 263.974 171.605C263.974 171.605 266.913 182.195 269.151 187.589C271.389 192.986 273.104 200.116 273.104 200.116Z" fill="#070707"/>
<path d="M309.301 280.076L305.755 279.668C305.755 279.668 302.259 282.128 302.178 287C302.096 291.873 303.026 296.466 303.026 296.466L307.764 296.37L306.313 300.68C306.313 300.68 293.74 296.776 284.273 290.997C269.477 281.967 259.506 260.552 259.506 260.552C259.506 260.552 240.547 276.963 236.631 279.89C232.715 282.813 228.711 283.798 223.083 282.657C217.456 281.516 211.666 273.674 212.07 267.003C212.473 260.332 225.439 200.517 225.439 200.517C225.439 200.517 232.536 196.168 241.218 196.632C244.856 196.825 253.315 196.326 259.111 196.734C267.148 197.304 272.293 198.781 272.293 198.781L275.46 229.795C275.46 229.795 270.882 225.479 262.562 231.607C254.242 237.737 252.684 238.471 252.684 238.471L250.47 225.502L245.841 242.972L249.989 240.451C249.989 240.451 247.559 244.473 250.28 250.194C252.999 255.916 255.269 256.674 255.269 256.674L259.138 254.919L266.015 255.637C266.015 255.637 277.195 266.046 282.478 266.861C287.759 267.674 290.937 265.758 290.937 265.758C290.937 265.758 295.242 271.044 300.697 273.595C306.151 276.144 307.699 276.674 308.494 277.549C309.289 278.424 309.301 280.076 309.301 280.076Z" fill="white"/>
<path d="M276.144 263.437C276.144 263.437 275.227 260.878 275.364 258.991C275.501 257.106 276.064 254.596 276.064 254.596L267.161 236.6C267.161 236.6 264.416 237.286 263.223 236.646C262.03 236.004 260.471 234.075 260.471 234.075L253.481 238.859C253.481 238.859 252.824 243.631 255.123 248.265C257.421 252.902 258.545 254.176 258.545 254.176L260.134 254.076L266.802 255.218L276.144 263.437Z" fill="#070707"/>
<path d="M318.25 292.75L324.356 311.328C324.356 311.328 321.688 311.782 320.497 310.968C319.307 310.153 315.444 302.732 315.444 302.732L310.307 296.883L308.012 296.294C308.012 296.294 305.985 289.303 306.842 285.642C307.697 281.978 309.179 279.821 309.179 279.821L316.5 280.138C316.5 280.138 312.868 281.076 312.886 285.483C312.903 289.891 318.25 292.75 318.25 292.75Z" fill="#070707"/>
<path d="M276.803 231.017C279.497 233.811 284.44 244.792 287.119 249.64C289.798 254.489 292.019 263.015 290.583 263.786C289.146 264.556 286.166 263.637 281.718 255.906C277.268 248.178 274.036 241.319 272.305 236.69C270.576 232.061 267.698 229.013 270.659 228.483C273.622 227.953 274.108 228.223 276.803 231.017Z" fill="#2371B0"/>
<path d="M327.549 280.531C328.814 282.234 337.718 302.788 339.18 307.006C340.643 311.227 342.079 315.962 339.66 317.097C337.241 318.233 333.381 319.016 328.192 306.238C323.001 293.459 319.293 285.449 320.695 280.61C321.737 277.019 326.286 278.831 327.549 280.531Z" fill="#2371B0"/>
<path d="M227.109 101.972C226.561 101.939 226.096 102.352 226.069 102.892L225.993 104.456C225.966 104.996 226.388 105.458 226.936 105.49C227.484 105.523 227.949 105.111 227.976 104.571L228.051 103.007C228.077 102.467 227.656 102.004 227.109 101.972Z" fill="#070707"/>
</svg>
