<svg width="368" height="328" viewBox="0 0 368 328" fill="none" xmlns="http://www.w3.org/2000/svg">
<g opacity="0.3">
<path d="M365.472 193.072C368.688 194.939 368.705 197.973 365.51 199.84L148.31 325.876C145.115 327.742 139.917 327.735 136.701 325.868L8.22466 251.287C5.00901 249.421 4.97936 246.394 8.17427 244.527L225.375 118.492C228.57 116.625 233.78 116.625 236.996 118.492L365.472 193.072Z" fill="#1F2D6B"/>
</g>
<path d="M360.525 167.549C363.741 169.415 363.758 172.45 360.563 174.316L143.362 300.352C140.167 302.219 134.97 302.211 131.754 300.345L3.27761 225.764C0.0619573 223.897 0.0318825 220.87 3.22679 219.003L220.428 92.9683C223.623 91.1015 228.833 91.1011 232.048 92.9679L360.525 167.549Z" fill="url(#paint0_linear_22_1909)"/>
<path d="M155.329 287.21L350.419 174.005L220.315 99.8073L26.1343 212.484L155.329 287.21Z" fill="white"/>
<path d="M362.947 171.029C362.942 171.188 362.924 171.346 362.892 171.504C362.862 171.66 362.817 171.816 362.759 171.97C362.7 172.128 362.628 172.285 362.54 172.44C362.447 172.608 362.336 172.773 362.21 172.934C362.062 173.123 361.892 173.306 361.7 173.484C361.406 173.757 361.06 174.017 360.662 174.257C360.629 174.277 360.596 174.297 360.562 174.317L143.362 300.352C142.816 300.671 142.211 300.935 141.568 301.145C141.071 301.307 140.552 301.436 140.018 301.533C139.675 301.595 139.326 301.644 138.974 301.679C138.673 301.709 138.368 301.729 138.064 301.74C137.784 301.749 137.503 301.751 137.223 301.744C136.953 301.737 136.683 301.723 136.414 301.701C136.146 301.678 135.879 301.649 135.615 301.611C135.34 301.572 135.068 301.524 134.799 301.468C134.508 301.408 134.221 301.337 133.94 301.256C133.597 301.158 133.263 301.044 132.941 300.917C132.523 300.751 132.125 300.56 131.753 300.345L3.27696 225.764C1.65579 224.823 0.843936 223.586 0.847749 222.353L0.829112 228.847C0.825726 230.081 1.63674 231.317 3.25832 232.258L131.735 306.839C132.107 307.054 132.505 307.245 132.923 307.411C133.245 307.539 133.579 307.652 133.922 307.75C134.203 307.831 134.489 307.901 134.781 307.962C135.049 308.018 135.322 308.066 135.597 308.105C135.861 308.142 136.128 308.172 136.396 308.195C136.664 308.217 136.935 308.231 137.205 308.238C137.485 308.245 137.766 308.244 138.045 308.234C138.35 308.224 138.654 308.204 138.955 308.173C139.307 308.138 139.657 308.089 140 308.027C140.533 307.931 141.053 307.801 141.55 307.639C142.193 307.429 142.798 307.165 143.343 306.846L360.544 180.811C360.578 180.791 360.611 180.771 360.644 180.751C361.042 180.511 361.388 180.251 361.682 179.979C361.874 179.801 362.043 179.617 362.191 179.428C362.318 179.267 362.428 179.102 362.522 178.934C362.609 178.779 362.682 178.622 362.741 178.464C362.799 178.31 362.843 178.154 362.874 177.998C362.906 177.841 362.923 177.682 362.928 177.523C362.928 177.499 362.929 177.475 362.929 177.45L362.947 170.956C362.947 170.981 362.947 171.005 362.947 171.029Z" fill="url(#paint1_linear_22_1909)"/>
<path d="M104.587 278.488C101.216 279.396 96.5001 278.125 94.0514 275.649C91.6027 273.173 92.3472 270.428 95.7179 269.52C99.0932 268.61 103.812 269.884 106.261 272.36C108.709 274.836 107.962 277.579 104.587 278.488Z" fill="url(#paint2_linear_22_1909)"/>
<path d="M259.725 145.773C259.726 145.407 259.617 145.045 259.397 144.686C259.178 144.327 258.907 144.05 258.577 143.858C258.28 143.686 258.021 143.64 257.801 143.721C257.587 143.807 257.457 144.008 257.411 144.333L257.947 144.779C257.993 144.424 258.252 144.321 258.563 144.501C258.905 144.7 259.164 145.096 259.162 145.447C259.162 145.649 259.077 145.809 258.909 145.936L257.435 147.13L257.434 147.444L259.697 148.757L259.699 148.115L258.386 147.353L259.327 146.62C259.593 146.438 259.723 146.155 259.725 145.773Z" fill="#898989"/>
<path d="M262.648 146.648C262.461 146.278 262.145 145.937 261.737 145.7C261.337 145.467 261.02 145.441 260.818 145.586C260.513 145.798 260.414 146.377 260.413 147.086C260.411 147.721 260.481 148.233 260.674 148.756C260.867 149.272 261.215 149.698 261.725 149.995C262.559 150.479 262.91 150.062 263.01 149.282C263.062 148.901 263.064 148.356 263.013 147.915C262.969 147.478 262.848 147.011 262.648 146.648ZM261.727 149.36C261.223 149.068 260.972 148.421 260.975 147.412C260.978 146.411 261.231 146.058 261.736 146.35C262.24 146.643 262.491 147.29 262.488 148.291C262.485 149.299 262.232 149.653 261.727 149.36Z" fill="#898989"/>
<path d="M263.635 147.954L264.237 148.057L264.228 151.388L264.79 151.715L264.802 147.495L263.637 147.35L263.635 147.954Z" fill="#898989"/>
<path d="M265.623 148.016L265.621 148.643L267.244 149.585L265.624 152.199L266.277 152.578L268.177 149.498L265.623 148.016Z" fill="#898989"/>
<path d="M307.294 169.667C307.294 169.301 307.186 168.938 306.967 168.579C306.741 168.216 306.469 167.939 306.146 167.751C305.849 167.579 305.583 167.53 305.37 167.615C305.156 167.7 305.026 167.901 304.973 168.222L305.516 168.672C305.562 168.317 305.815 168.21 306.131 168.394C306.468 168.589 306.732 168.989 306.731 169.34C306.731 169.542 306.646 169.702 306.477 169.829L304.997 171.02L304.997 171.333L307.266 172.65L307.268 172.008L305.955 171.246L306.896 170.513C307.156 170.327 307.292 170.047 307.294 169.667Z" fill="#898989"/>
<path d="M310.218 170.541C310.025 170.167 309.715 169.83 309.307 169.594C308.907 169.361 308.589 169.334 308.388 169.48C308.083 169.692 307.978 170.266 307.976 170.975C307.974 171.61 308.051 172.126 308.243 172.649C308.43 173.162 308.785 173.592 309.295 173.888C310.123 174.369 310.48 173.955 310.579 173.175C310.632 172.794 310.634 172.249 310.583 171.808C310.539 171.371 310.418 170.904 310.218 170.541ZM309.297 173.254C308.793 172.961 308.542 172.314 308.545 171.306C308.548 170.305 308.801 169.951 309.305 170.244C309.809 170.537 310.054 171.179 310.051 172.18C310.048 173.189 309.801 173.546 309.297 173.254Z" fill="#898989"/>
<path d="M311.205 171.847L311.8 171.946L311.791 175.277L312.359 175.608L312.371 171.388L311.206 171.242L311.205 171.847Z" fill="#898989"/>
<path d="M315.191 174.828C315.379 174.743 315.471 174.548 315.471 174.257C315.472 173.958 315.376 173.641 315.183 173.319C314.989 172.997 314.744 172.743 314.466 172.581C314.181 172.416 313.942 172.389 313.747 172.486C313.553 172.582 313.461 172.791 313.461 173.09C313.46 173.381 313.543 173.676 313.724 173.976C313.381 174.009 313.179 174.296 313.178 174.758C313.176 175.147 313.298 175.539 313.544 175.951C313.795 176.366 314.092 176.673 314.454 176.883C314.809 177.09 315.107 177.128 315.36 177.005C315.607 176.879 315.73 176.629 315.731 176.241C315.733 175.785 315.526 175.262 315.191 174.828ZM314.464 173.216C314.723 173.366 314.91 173.684 314.909 173.938C314.908 174.199 314.726 174.319 314.468 174.168C314.196 174.011 314.009 173.7 314.01 173.416C314.011 173.162 314.199 173.062 314.464 173.216ZM314.954 176.321C314.818 176.391 314.649 176.368 314.455 176.256C314.255 176.14 314.081 175.963 313.946 175.735C313.804 175.51 313.74 175.286 313.74 175.077C313.741 174.875 313.806 174.734 313.935 174.66C314.065 174.593 314.227 174.605 314.415 174.714L314.473 174.747C314.667 174.86 314.835 175.032 314.964 175.257C315.099 175.478 315.163 175.694 315.162 175.903C315.162 176.112 315.097 176.261 314.954 176.321Z" fill="#898989"/>
<path d="M221.507 122.936C221.508 122.57 221.399 122.207 221.174 121.844C220.954 121.485 220.683 121.208 220.36 121.02C220.056 120.844 219.797 120.799 219.583 120.884C219.363 120.965 219.24 121.17 219.187 121.491L219.73 121.941C219.776 121.586 220.029 121.479 220.345 121.663C220.682 121.858 220.939 122.255 220.938 122.606C220.938 122.808 220.859 122.971 220.691 123.098L219.211 124.288L219.21 124.602L221.473 125.916L221.475 125.273L220.162 124.512L221.11 123.783C221.369 123.597 221.506 123.317 221.507 122.936Z" fill="#898989"/>
<path d="M225.419 125.117L226.015 125.216L226.006 128.547L226.574 128.877L226.587 124.657L225.421 124.512L225.419 125.117Z" fill="#898989"/>
<path d="M229.579 128.332C229.36 127.928 229.102 127.644 228.785 127.46C228.429 127.253 228.164 127.264 228.015 127.491C227.99 127.081 228.049 126.778 228.199 126.596C228.348 126.413 228.549 126.395 228.795 126.538C229.047 126.684 229.234 126.942 229.356 127.312L229.874 127.359C229.649 126.645 229.287 126.233 228.822 125.94C228.805 125.93 228.787 125.919 228.77 125.909C227.557 125.205 227.397 126.687 227.469 128.02C227.5 128.472 227.622 128.894 227.841 129.283C228.061 129.672 228.332 129.957 228.655 130.144C229.004 130.347 229.289 130.386 229.522 130.274C229.762 130.159 229.886 129.916 229.894 129.532C229.895 129.121 229.792 128.725 229.579 128.332ZM229.135 129.578C229.012 129.635 228.872 129.621 228.709 129.526C228.7 129.52 228.691 129.515 228.683 129.51C228.334 129.3 228.056 128.81 228.058 128.384C228.058 128.19 228.123 128.056 228.259 127.993C228.388 127.933 228.536 127.95 228.705 128.048C228.714 128.054 228.723 128.059 228.732 128.065C229.081 128.275 229.326 128.754 229.324 129.172C229.324 129.374 229.265 129.511 229.135 129.578Z" fill="#898989"/>
<path d="M224.432 123.81C224.238 123.437 223.923 123.095 223.521 122.863C223.114 122.626 222.797 122.6 222.602 122.748C222.298 122.96 222.192 123.535 222.19 124.245C222.188 124.879 222.258 125.391 222.451 125.915C222.644 126.431 222.998 126.861 223.509 127.157C224.337 127.638 224.694 127.225 224.793 126.444C224.84 126.06 224.842 125.514 224.797 125.077C224.753 124.64 224.631 124.173 224.432 123.81ZM223.511 126.523C223.006 126.23 222.756 125.583 222.759 124.575C222.762 123.574 223.015 123.22 223.52 123.513C224.024 123.805 224.269 124.448 224.266 125.449C224.263 126.458 224.015 126.815 223.511 126.523Z" fill="#898989"/>
<path d="M184.468 78.3634C184.791 78.5511 185.062 78.8283 185.282 79.1873C185.507 79.5501 185.617 79.9125 185.615 80.2787C185.614 80.6593 185.478 80.9391 185.218 81.1252L184.27 81.8546L185.583 82.6164L185.581 83.2585L183.318 81.9453L183.319 81.6315L184.799 80.4405C184.967 80.314 185.046 80.1501 185.046 79.9482C185.047 79.5974 184.789 79.2005 184.453 79.0055C184.136 78.8215 183.884 78.9293 183.837 79.284L183.294 78.8343C183.347 78.5132 183.471 78.308 183.691 78.2267C183.905 78.1415 184.164 78.1871 184.468 78.3634Z" fill="#898989"/>
<path d="M188.905 82.42C188.949 82.8569 188.947 83.4023 188.901 83.7868C188.802 84.5669 188.445 84.9804 187.617 84.5001C187.106 84.2037 186.751 83.7732 186.559 83.2575C186.366 82.7338 186.296 82.2224 186.298 81.5948C186.3 80.8777 186.405 80.3028 186.71 80.0908C186.905 79.9417 187.222 79.9694 187.629 80.2058C188.03 80.4387 188.346 80.7789 188.539 81.1528C188.739 81.516 188.861 81.9831 188.905 82.42ZM187.619 83.8652C188.124 84.1577 188.37 83.8 188.373 82.799C188.376 81.7906 188.132 81.1481 187.628 80.8551C187.123 80.5626 186.87 80.9164 186.867 81.9248C186.864 82.9258 187.115 83.5722 187.619 83.8652Z" fill="#898989"/>
<path d="M185.276 55.6635L185.781 55.9561L185.779 56.5535L185.275 56.261L185.272 57.1347L184.71 56.8081L184.712 55.9344L182.863 54.8613L184.799 52.6782L185.284 52.9596L185.276 55.6635ZM184.714 55.3369L184.719 53.7086L183.77 54.7889L184.714 55.3369Z" fill="#898989"/>
<path d="M188.978 56.5176C189.022 56.955 189.02 57.5072 188.974 57.8917C188.874 58.6718 188.517 59.0857 187.69 58.6054C187.179 58.309 186.824 57.8785 186.632 57.3552C186.439 56.8319 186.369 56.3273 186.371 55.6924C186.373 54.9753 186.478 54.4005 186.783 54.1884C186.977 54.0471 187.295 54.0743 187.702 54.3107C188.103 54.5436 188.419 54.8842 188.612 55.2504C188.812 55.6209 188.934 56.0884 188.978 56.5176ZM187.692 57.9629C188.196 58.2554 188.443 57.9054 188.446 56.897C188.449 55.8964 188.204 55.2534 187.7 54.9604C187.196 54.6679 186.942 55.0218 186.939 56.0224C186.936 57.0307 187.187 57.6703 187.692 57.9629Z" fill="#898989"/>
<path d="M185.474 29.0262C185.686 29.4192 185.796 29.8263 185.794 30.2372C185.78 30.6106 185.657 30.8606 185.417 30.9679C185.183 31.0867 184.898 31.0484 184.556 30.8495C184.226 30.6583 183.955 30.3734 183.736 29.977C183.524 29.5921 183.395 29.1654 183.37 28.7175C183.297 27.3838 183.458 25.9024 184.665 26.6033C184.682 26.6131 184.699 26.6229 184.716 26.6335C185.188 26.9376 185.543 27.3387 185.768 28.0523L185.257 28.0097C185.128 27.6359 184.941 27.3851 184.695 27.2424C184.443 27.096 184.242 27.1066 184.093 27.2893C183.943 27.4715 183.884 27.7739 183.916 28.1886C184.065 27.9612 184.324 27.9548 184.686 28.1647C184.997 28.3449 185.261 28.6336 185.474 29.0262ZM185.03 30.2798C185.16 30.2129 185.225 30.0783 185.225 29.8693C185.226 29.4584 184.975 28.9687 184.626 28.7588C184.452 28.6574 184.296 28.6268 184.154 28.6936C184.024 28.7605 183.959 28.8873 183.959 29.0815C183.957 29.5146 184.228 29.9936 184.577 30.2035C184.587 30.2099 184.597 30.2159 184.606 30.2214C184.774 30.3189 184.914 30.3394 185.03 30.2798Z" fill="#898989"/>
<path d="M189.051 30.6234C189.095 31.0603 189.093 31.613 189.047 31.9903C188.948 32.7781 188.59 33.1915 187.763 32.7112C187.252 32.4148 186.897 31.9839 186.704 31.4606C186.512 30.9373 186.442 30.4331 186.444 29.7982C186.446 29.0812 186.551 28.5059 186.856 28.2942C187.05 28.1529 187.368 28.1725 187.775 28.4088C188.176 28.6417 188.492 28.9896 188.685 29.3562C188.885 29.719 189.007 30.1866 189.051 30.6234ZM187.765 32.0687C188.269 32.3612 188.516 32.0035 188.519 31.0028C188.522 29.9945 188.277 29.3588 187.773 29.0663C187.269 28.7737 187.009 29.1165 187.006 30.1248C187.003 31.1255 187.26 31.7761 187.765 32.0687Z" fill="#898989"/>
<path d="M185.321 2.8655C185.657 3.29982 185.869 3.82698 185.868 4.27494C185.866 4.67094 185.743 4.92089 185.49 5.04311C185.244 5.16958 184.946 5.13167 184.584 4.92132C184.222 4.71139 183.925 4.40396 183.68 3.99263C183.429 3.57746 183.306 3.18486 183.308 2.78886C183.309 2.33323 183.517 2.05006 183.854 2.01344C183.68 1.71793 183.59 1.41901 183.591 1.13543C183.592 0.828841 183.69 0.624017 183.884 0.527362C184.072 0.42729 184.311 0.453695 184.596 0.61891C184.88 0.784126 185.119 1.03535 185.313 1.35684C185.506 1.67834 185.609 1.99983 185.608 2.30641C185.607 2.59 185.509 2.77991 185.321 2.8655ZM185.091 4.36224C185.227 4.29964 185.299 4.15358 185.299 3.94451C185.299 3.73543 185.229 3.51486 185.1 3.29812C184.965 3.06989 184.797 2.89744 184.609 2.78886L184.545 2.75138C184.357 2.64238 184.195 2.63088 184.066 2.69772C183.942 2.77522 183.877 2.91788 183.877 3.11929C183.876 3.32836 183.94 3.55277 184.076 3.77333C184.217 4.0054 184.385 4.17742 184.586 4.29368C184.786 4.40993 184.948 4.42908 185.091 4.36224ZM184.594 1.2538C184.335 1.10349 184.148 1.2044 184.147 1.45819C184.146 1.74178 184.333 2.05219 184.604 2.20974C184.863 2.36005 185.038 2.23742 185.039 1.97598C185.04 1.72219 184.853 1.40411 184.594 1.2538Z" fill="#898989"/>
<path d="M189.124 4.72842C189.168 5.16573 189.167 5.71077 189.12 6.09528C189.021 6.87536 188.664 7.28926 187.836 6.80895C187.326 6.51258 186.971 6.08166 186.778 5.566C186.585 5.04267 186.515 4.53085 186.517 3.89596C186.519 3.18655 186.624 2.61129 186.929 2.39965C187.124 2.25062 187.441 2.27787 187.848 2.51419C188.249 2.74712 188.566 3.08734 188.759 3.4612C188.959 3.82443 189.08 4.29154 189.124 4.72842ZM187.838 6.17363C188.342 6.46616 188.589 6.10891 188.592 5.10058C188.595 4.0995 188.35 3.45652 187.846 3.16398C187.342 2.87103 187.082 3.22104 187.08 4.22213C187.077 5.23046 187.334 5.8811 187.838 6.17363Z" fill="#898989"/>
<path d="M333.311 176.787L196.842 98.2001L197.224 0.468475" stroke="#DFCED4" stroke-width="0.148421" stroke-miterlimit="10"/>
<path d="M238.826 40.7701L245.898 126.237L245.967 126.838L231.351 118.353L231.422 117.834L238.826 40.7701Z" fill="url(#paint3_linear_22_1909)"/>
<path d="M221.365 49.9579L228.364 116.346L228.405 116.931L213.788 108.445L213.832 107.91L221.365 49.9579Z" fill="url(#paint4_linear_22_1909)"/>
<path d="M230.215 10.3059L237.238 120.754L237.286 121.342L222.669 112.857L222.72 112.325L230.215 10.3059Z" fill="url(#paint5_linear_22_1909)"/>
<path d="M280.384 5.97189L287.327 149.716L287.36 150.297L272.75 141.816L272.787 141.276L280.384 5.97189Z" fill="url(#paint6_linear_22_1909)"/>
<path d="M262.038 21.8091L269.045 139.482L269.089 140.068L254.472 131.583L254.519 131.049L262.038 21.8091Z" fill="url(#paint7_linear_22_1909)"/>
<path d="M270.538 52.1636L277.606 144.069L277.668 144.666L263.051 136.181L263.116 135.657L270.538 52.1636Z" fill="url(#paint8_linear_22_1909)"/>
<path d="M323.371 72.2887L328.321 173.088L328.389 173.689L313.773 165.204L313.845 164.685L323.371 72.2887Z" fill="url(#paint9_linear_22_1909)"/>
<path d="M303.287 97.4623L310.286 163.173L310.326 163.757L295.71 155.273L295.754 154.737L303.287 97.4623Z" fill="url(#paint10_linear_22_1909)"/>
<path d="M312.638 30.577L319.661 168.528L319.709 169.117L305.092 160.632L305.143 160.1L312.638 30.577Z" fill="url(#paint11_linear_22_1909)"/>
<path d="M138.845 131.891L143.902 139.591V187.393L119.097 204.913L111.481 192.817L113.319 137.572L138.845 131.891Z" fill="url(#paint12_linear_22_1909)"/>
<path d="M168.048 125.483L143.902 139.591L113.44 148.68C106.817 141.181 108.853 131.762 119.599 125.483C132.932 117.693 154.628 117.693 168.048 125.483Z" fill="url(#paint13_linear_22_1909)"/>
<path d="M113.44 148.68L113.319 209.171C110.78 206.296 109.514 203.14 109.523 199.986L109.643 139.495C109.634 142.649 110.901 145.805 113.44 148.68Z" fill="url(#paint14_linear_22_1909)"/>
<path d="M143.903 139.491V219.166H175.701L175.821 146.817L143.903 139.491Z" fill="url(#paint15_linear_22_1909)"/>
<path d="M143.903 139.491V219.166H175.701L175.821 146.817L143.903 139.491Z" fill="url(#paint16_linear_22_1909)"/>
<path d="M178.156 139.895C178.137 140.555 178.062 141.215 177.931 141.871C177.802 142.522 177.617 143.17 177.377 143.812C177.132 144.471 176.828 145.123 176.466 145.767C176.269 146.12 175.948 146.47 175.715 146.816L175.7 224.227C175.933 223.88 176.148 223.53 176.346 223.178C176.707 222.534 177.011 221.881 177.257 221.222C177.496 220.58 177.681 219.932 177.811 219.281C177.941 218.625 178.016 217.965 178.035 217.305C178.038 217.203 178.04 217.102 178.04 217L178.161 139.59C178.16 139.692 178.159 139.794 178.156 139.895Z" fill="url(#paint17_linear_22_1909)"/>
<path d="M168.048 125.383C178.03 131.178 180.573 139.753 175.769 146.923L143.903 139.491L168.048 125.383Z" fill="url(#paint18_linear_22_1909)"/>
<path d="M175.82 146.992C174.157 149.465 171.628 151.782 168.212 153.778C154.873 161.573 133.177 161.573 119.751 153.779C117.14 152.263 115.041 150.566 113.44 148.756L143.902 139.667L175.82 146.992Z" fill="url(#paint19_linear_22_1909)"/>
<path d="M175.101 147.983C174.483 148.774 173.774 149.545 172.971 150.292C171.762 151.418 170.342 152.488 168.71 153.482C168.546 153.581 168.38 153.681 168.213 153.779C165.927 155.114 163.395 156.221 160.702 157.099C158.623 157.777 156.448 158.318 154.215 158.723C152.778 158.983 151.318 159.188 149.844 159.335C148.585 159.462 147.317 159.546 146.044 159.59C144.876 159.63 143.704 159.635 142.535 159.606C141.407 159.578 140.28 159.517 139.159 159.424C138.041 159.332 136.93 159.207 135.828 159.05C134.683 158.887 133.548 158.689 132.431 158.456C131.218 158.204 130.024 157.91 128.856 157.575C127.427 157.166 126.036 156.695 124.695 156.162C122.954 155.471 121.298 154.677 119.751 153.779C117.141 152.264 115.041 150.566 113.441 148.756L113.32 184.58C114.92 186.39 117.02 188.088 119.63 189.604C121.177 190.502 122.833 191.296 124.574 191.987C125.915 192.519 127.306 192.99 128.736 193.4C129.904 193.734 131.097 194.028 132.31 194.281C133.428 194.514 134.562 194.712 135.707 194.875C136.809 195.032 137.921 195.157 139.039 195.249C140.159 195.342 141.286 195.403 142.414 195.431C143.583 195.46 144.755 195.454 145.923 195.414C147.195 195.37 148.465 195.286 149.723 195.16C151.198 195.012 152.657 194.808 154.094 194.548C156.327 194.143 158.503 193.601 160.582 192.924C163.275 192.046 165.806 190.939 168.091 189.603C168.26 189.505 168.426 189.406 168.589 189.307C170.222 188.312 171.641 187.242 172.85 186.117C173.653 185.37 174.363 184.598 174.981 183.807C175.236 183.48 175.476 183.15 175.7 182.817L175.821 146.992C175.597 147.325 175.357 147.656 175.101 147.983Z" fill="url(#paint20_linear_22_1909)"/>
<path d="M179.723 155.58V182.668L217.034 193.856L213.949 156.618L179.723 155.58Z" fill="url(#paint21_linear_22_1909)"/>
<path d="M238.095 142.51V178.143L213.896 201.792L213.95 156.618L238.095 142.51Z" fill="url(#paint22_linear_22_1909)"/>
<path d="M238.094 142.51L213.949 156.618L179.723 155.579C180.116 150.824 183.424 146.138 189.639 142.506C202.972 134.715 224.667 134.716 238.094 142.51Z" fill="url(#paint23_linear_22_1909)"/>
<path d="M193.067 180.929L192.946 230.062C192.379 229.81 191.832 229.546 191.291 229.271C190.737 228.988 190.197 228.698 189.676 228.395C182.919 224.473 179.547 219.325 179.562 214.188L179.682 165.054C179.668 170.192 183.04 175.339 189.797 179.262C190.318 179.564 190.858 179.855 191.412 180.138C191.953 180.413 192.5 180.677 193.067 180.929Z" fill="url(#paint24_linear_22_1909)"/>
<path d="M213.949 165.15L193.067 180.929C192.5 180.677 191.953 180.413 191.412 180.138C190.858 179.855 190.318 179.564 189.797 179.262C182.626 175.1 179.268 169.557 179.723 164.112L213.949 165.15Z" fill="url(#paint25_linear_22_1909)"/>
<path d="M213.95 165.15V193.248L192.445 229.557L193.068 180.929L213.95 165.15Z" fill="url(#paint26_linear_22_1909)"/>
<path d="M248.201 178.621C248.182 179.281 248.107 179.941 247.976 180.598C247.846 181.248 247.662 181.896 247.422 182.537C247.176 183.197 246.872 183.85 246.51 184.496C246.118 185.193 245.659 185.88 245.131 186.554C244.515 187.34 243.807 188.108 243.007 188.851C241.779 189.991 240.333 191.074 238.67 192.079C238.532 192.163 238.393 192.245 238.252 192.328C238.176 192.372 238.09 192.405 238.014 192.448L193.067 193.998L192.947 230.062C193.504 230.313 194.071 230.553 194.648 230.782C195.978 231.309 197.358 231.776 198.775 232.182C199.949 232.519 201.149 232.815 202.368 233.068C203.484 233.301 204.615 233.498 205.758 233.661C206.859 233.818 207.971 233.943 209.089 234.035C210.208 234.128 211.334 234.189 212.461 234.217C213.627 234.246 214.794 234.241 215.959 234.201C217.236 234.158 218.509 234.072 219.772 233.946C221.256 233.797 222.725 233.591 224.17 233.328C226.374 232.927 228.521 232.394 230.575 231.726C233.285 230.846 235.832 229.734 238.131 228.391C238.272 228.309 238.412 228.227 238.549 228.143C240.212 227.137 241.658 226.054 242.886 224.915C243.687 224.171 244.394 223.403 245.01 222.617C245.537 221.944 245.997 221.257 246.389 220.559C246.751 219.914 247.056 219.261 247.302 218.601C247.541 217.959 247.726 217.312 247.855 216.661C247.986 216.004 248.061 215.345 248.08 214.684C248.083 214.583 248.084 214.482 248.085 214.382L248.205 178.318C248.205 178.419 248.204 178.52 248.201 178.621Z" fill="url(#paint27_linear_22_1909)"/>
<path d="M238.093 164.112C251.513 171.902 251.584 184.537 238.251 192.327C225.946 199.517 206.537 200.072 193.067 193.998L213.949 178.22L238.093 164.112Z" fill="url(#paint28_linear_22_1909)"/>
<path d="M70.9678 206.847L68.2819 208.416L64.6694 206.319L67.3553 204.75L70.9678 206.847Z" fill="#ADB1BA"/>
<path d="M96.7468 221.812L94.0606 223.381L70.8721 209.92L73.5579 208.35L96.7468 221.812Z" fill="url(#paint29_linear_22_1909)"/>
<path d="M101.986 231.452L94.2588 235.967L53.7651 212.461L61.4924 207.946L101.986 231.452Z" fill="#C4C5C4"/>
<path d="M102.487 202.75L103.752 206.245L97.7476 205.519L102.487 202.75Z" fill="white"/>
<path d="M107.716 200.929C111.351 203.039 111.37 206.46 107.759 208.57C104.147 210.68 98.282 210.676 94.6471 208.566C91.0122 206.455 90.9927 203.044 94.6043 200.934C98.216 198.824 104.081 198.819 107.716 200.929ZM97.7476 205.519L103.752 206.245L102.487 202.75L97.7476 205.519Z" fill="url(#paint30_linear_22_1909)"/>
<path d="M198.377 240.201L195.69 241.77L166.254 224.682L168.94 223.112L198.377 240.201Z" fill="#ADB1BA"/>
<path d="M165.676 221.218L162.989 222.787L160.263 221.205L162.949 219.635L165.676 221.218Z" fill="url(#paint31_linear_22_1909)"/>
<path d="M159.988 224.541L157.302 226.111L154.575 224.528L157.261 222.958L159.988 224.541Z" fill="url(#paint32_linear_22_1909)"/>
<path d="M154.291 227.869L151.605 229.439L148.879 227.856L151.565 226.287L154.291 227.869Z" fill="url(#paint33_linear_22_1909)"/>
<path d="M174.02 255.561L172.139 256.66L154.569 246.461L156.45 245.362L174.02 255.561Z" fill="url(#paint34_linear_22_1909)"/>
<path d="M152.543 243.094L150.662 244.193L142.233 239.3L144.114 238.201L152.543 243.094Z" fill="url(#paint35_linear_22_1909)"/>
<path d="M188.159 240.895L185.473 242.465L160.565 228.006L163.251 226.436L188.159 240.895Z" fill="#ADB1BA"/>
<path d="M194.111 250.984L191.425 252.554L154.869 231.334L157.555 229.764L194.111 250.984Z" fill="#ADB1BA"/>
<path d="M185.19 252.431L182.503 254L149.182 234.657L151.867 233.087L185.19 252.431Z" fill="#ADB1BA"/>
<path d="M171.092 258.447L168.406 260.016L138.97 242.928L141.656 241.358L171.092 258.447Z" fill="#ADB1BA"/>
<path d="M138.391 239.464L135.705 241.033L132.979 239.451L135.664 237.881L138.391 239.464Z" fill="url(#paint36_linear_22_1909)"/>
<path d="M132.703 242.787L130.017 244.357L127.291 242.774L129.976 241.205L132.703 242.787Z" fill="url(#paint37_linear_22_1909)"/>
<path d="M127.008 246.115L124.322 247.685L121.596 246.102L124.282 244.533L127.008 246.115Z" fill="url(#paint38_linear_22_1909)"/>
<path d="M146.736 273.807L144.855 274.906L127.285 264.707L129.166 263.608L146.736 273.807Z" fill="url(#paint39_linear_22_1909)"/>
<path d="M125.258 261.34L123.378 262.439L114.949 257.546L116.83 256.447L125.258 261.34Z" fill="url(#paint40_linear_22_1909)"/>
<path d="M160.875 259.141L158.19 260.711L133.281 246.252L135.968 244.682L160.875 259.141Z" fill="#ADB1BA"/>
<path d="M166.827 269.23L164.141 270.8L127.585 249.579L130.271 248.01L166.827 269.23Z" fill="#ADB1BA"/>
<path d="M157.905 270.677L155.219 272.246L121.897 252.903L124.583 251.333L157.905 270.677Z" fill="#ADB1BA"/>
<defs>
<linearGradient id="paint0_linear_22_1909" x1="183.36" y1="33.6232" x2="182.685" y2="98.6554" gradientUnits="userSpaceOnUse">
<stop stop-color="#EEF4FB"/>
<stop offset="0.45" stop-color="#DFEBF7"/>
<stop offset="1" stop-color="#CFE1F3"/>
</linearGradient>
<linearGradient id="paint1_linear_22_1909" x1="0.405609" y1="239.291" x2="362.524" y2="239.291" gradientUnits="userSpaceOnUse">
<stop stop-color="#00D5FF"/>
<stop offset="0.5" stop-color="#00A9E2"/>
<stop offset="1" stop-color="#007DC6"/>
</linearGradient>
<linearGradient id="paint2_linear_22_1909" x1="-169.64" y1="605.201" x2="-157.148" y2="618.821" gradientUnits="userSpaceOnUse">
<stop stop-color="#EEF4FB"/>
<stop offset="0.45" stop-color="#DFEBF7"/>
<stop offset="1" stop-color="#CFE1F3"/>
</linearGradient>
<linearGradient id="paint3_linear_22_1909" x1="231.215" y1="83.4434" x2="245.832" y2="83.4434" gradientUnits="userSpaceOnUse">
<stop stop-color="#00BEF5"/>
<stop offset="0.5" stop-color="#009EDE"/>
<stop offset="1" stop-color="#007DC6"/>
</linearGradient>
<linearGradient id="paint4_linear_22_1909" x1="213.428" y1="83.4434" x2="228.045" y2="83.4434" gradientUnits="userSpaceOnUse">
<stop stop-color="#FFD71D"/>
<stop offset="0.5" stop-color="#FEC50F"/>
<stop offset="1" stop-color="#FEB200"/>
</linearGradient>
<linearGradient id="paint5_linear_22_1909" x1="222.322" y1="65.5593" x2="236.938" y2="65.5593" gradientUnits="userSpaceOnUse">
<stop stop-color="#636EE0"/>
<stop offset="0.5" stop-color="#5554B9"/>
<stop offset="1" stop-color="#473B91"/>
</linearGradient>
<linearGradient id="paint6_linear_22_1909" x1="272.718" y1="77.9078" x2="287.328" y2="77.9078" gradientUnits="userSpaceOnUse">
<stop stop-color="#FC9D00"/>
<stop offset="0.5" stop-color="#F87707"/>
<stop offset="1" stop-color="#F3510F"/>
</linearGradient>
<linearGradient id="paint7_linear_22_1909" x1="254.084" y1="80.8884" x2="268.7" y2="80.8884" gradientUnits="userSpaceOnUse">
<stop stop-color="#FFD71D"/>
<stop offset="0.5" stop-color="#FEC50F"/>
<stop offset="1" stop-color="#FEB200"/>
</linearGradient>
<linearGradient id="paint8_linear_22_1909" x1="262.978" y1="98.3468" x2="277.594" y2="98.3468" gradientUnits="userSpaceOnUse">
<stop stop-color="#E4E61D"/>
<stop offset="0.5" stop-color="#A1D22E"/>
<stop offset="0.99" stop-color="#5FBD3F"/>
</linearGradient>
<linearGradient id="paint9_linear_22_1909" x1="313.374" y1="122.618" x2="327.991" y2="122.618" gradientUnits="userSpaceOnUse">
<stop stop-color="#00BEF5"/>
<stop offset="0.5" stop-color="#009EDE"/>
<stop offset="1" stop-color="#007DC6"/>
</linearGradient>
<linearGradient id="paint10_linear_22_1909" x1="295.587" y1="130.283" x2="310.204" y2="130.283" gradientUnits="userSpaceOnUse">
<stop stop-color="#E4E61D"/>
<stop offset="0.5" stop-color="#A1D22E"/>
<stop offset="0.99" stop-color="#5FBD3F"/>
</linearGradient>
<linearGradient id="paint11_linear_22_1909" x1="304.905" y1="99.6242" x2="319.521" y2="99.6242" gradientUnits="userSpaceOnUse">
<stop stop-color="#FFD71D"/>
<stop offset="0.5" stop-color="#FEC50F"/>
<stop offset="1" stop-color="#FEB200"/>
</linearGradient>
<linearGradient id="paint12_linear_22_1909" x1="127.879" y1="233.649" x2="127.52" y2="145.152" gradientUnits="userSpaceOnUse">
<stop stop-color="#EC9706" stop-opacity="0.01"/>
<stop offset="0.5" stop-color="#E88303" stop-opacity="0.505"/>
<stop offset="1" stop-color="#E36E00"/>
</linearGradient>
<linearGradient id="paint13_linear_22_1909" x1="138.044" y1="122.512" x2="145.116" y2="217.202" gradientUnits="userSpaceOnUse">
<stop stop-color="#FFD71D"/>
<stop offset="0.5" stop-color="#FEC50F"/>
<stop offset="1" stop-color="#FEB200"/>
</linearGradient>
<linearGradient id="paint14_linear_22_1909" x1="109.245" y1="174.035" x2="113.163" y2="174.035" gradientUnits="userSpaceOnUse">
<stop stop-color="#FFD71D"/>
<stop offset="0.5" stop-color="#FEC50F"/>
<stop offset="1" stop-color="#FEB200"/>
</linearGradient>
<linearGradient id="paint15_linear_22_1909" x1="158.796" y1="207.887" x2="160.718" y2="149.599" gradientUnits="userSpaceOnUse">
<stop stop-color="#636EE0"/>
<stop offset="0.5" stop-color="#5554B9"/>
<stop offset="1" stop-color="#473B91"/>
</linearGradient>
<linearGradient id="paint16_linear_22_1909" x1="158.796" y1="207.887" x2="160.718" y2="149.599" gradientUnits="userSpaceOnUse">
<stop stop-color="#4D4BB5" stop-opacity="0"/>
<stop offset="0.5" stop-color="#393298" stop-opacity="0.5"/>
<stop offset="1" stop-color="#261A7C"/>
</linearGradient>
<linearGradient id="paint17_linear_22_1909" x1="177.43" y1="211.293" x2="175.806" y2="155.837" gradientUnits="userSpaceOnUse">
<stop stop-color="#636EE0"/>
<stop offset="0.5" stop-color="#5554B9"/>
<stop offset="1" stop-color="#473B91"/>
</linearGradient>
<linearGradient id="paint18_linear_22_1909" x1="157.102" y1="130.815" x2="199.695" y2="203.936" gradientUnits="userSpaceOnUse">
<stop stop-color="#636EE0"/>
<stop offset="0.5" stop-color="#5554B9"/>
<stop offset="1" stop-color="#473B91"/>
</linearGradient>
<linearGradient id="paint19_linear_22_1909" x1="144.819" y1="139.65" x2="141.283" y2="214.865" gradientUnits="userSpaceOnUse">
<stop stop-color="#E4E61D"/>
<stop offset="0.5" stop-color="#A1D22E"/>
<stop offset="0.99" stop-color="#5FBD3F"/>
</linearGradient>
<linearGradient id="paint20_linear_22_1909" x1="145.243" y1="204.8" x2="144.071" y2="149.978" gradientUnits="userSpaceOnUse">
<stop stop-color="#E4E61D"/>
<stop offset="0.5" stop-color="#A1D22E"/>
<stop offset="0.99" stop-color="#5FBD3F"/>
</linearGradient>
<linearGradient id="paint21_linear_22_1909" x1="188.23" y1="196.319" x2="197.367" y2="161.329" gradientUnits="userSpaceOnUse">
<stop stop-color="#D0673E" stop-opacity="0"/>
<stop offset="0.5" stop-color="#C64B20" stop-opacity="0.5"/>
<stop offset="1" stop-color="#BB2F03"/>
</linearGradient>
<linearGradient id="paint22_linear_22_1909" x1="257.05" y1="205.048" x2="219.845" y2="160.771" gradientUnits="userSpaceOnUse">
<stop stop-color="#D35603" stop-opacity="0"/>
<stop offset="0.5" stop-color="#C74303" stop-opacity="0.5"/>
<stop offset="1" stop-color="#BB2F03"/>
</linearGradient>
<linearGradient id="paint23_linear_22_1909" x1="231.639" y1="131.596" x2="182.098" y2="160.043" gradientUnits="userSpaceOnUse">
<stop stop-color="#FC9D00"/>
<stop offset="0.5" stop-color="#F87707"/>
<stop offset="1" stop-color="#F3510F"/>
</linearGradient>
<linearGradient id="paint24_linear_22_1909" x1="171.925" y1="223.11" x2="193.399" y2="185.099" gradientUnits="userSpaceOnUse">
<stop stop-color="#FFD71D"/>
<stop offset="0.5" stop-color="#FEC50F"/>
<stop offset="1" stop-color="#FEB200"/>
</linearGradient>
<linearGradient id="paint25_linear_22_1909" x1="210.04" y1="176.27" x2="131.837" y2="137.917" gradientUnits="userSpaceOnUse">
<stop stop-color="#FFD71D"/>
<stop offset="0.5" stop-color="#FEC50F"/>
<stop offset="1" stop-color="#FEB200"/>
</linearGradient>
<linearGradient id="paint26_linear_22_1909" x1="214.276" y1="215.019" x2="194.422" y2="183.882" gradientUnits="userSpaceOnUse">
<stop stop-color="#E6EAED" stop-opacity="0"/>
<stop offset="0.5" stop-color="#E4AD77" stop-opacity="0.5"/>
<stop offset="1" stop-color="#E37100"/>
</linearGradient>
<linearGradient id="paint27_linear_22_1909" x1="221.898" y1="235.459" x2="220.407" y2="205.049" gradientUnits="userSpaceOnUse">
<stop stop-color="#00BEF5"/>
<stop offset="0.5" stop-color="#009EDE"/>
<stop offset="1" stop-color="#007DC6"/>
</linearGradient>
<linearGradient id="paint28_linear_22_1909" x1="227.403" y1="177.122" x2="144.172" y2="300.079" gradientUnits="userSpaceOnUse">
<stop stop-color="#00BEF5"/>
<stop offset="0.5" stop-color="#009EDE"/>
<stop offset="1" stop-color="#007DC6"/>
</linearGradient>
<linearGradient id="paint29_linear_22_1909" x1="70.7073" y1="215.445" x2="96.5821" y2="215.445" gradientUnits="userSpaceOnUse">
<stop stop-color="#00BEF5"/>
<stop offset="0.5" stop-color="#009EDE"/>
<stop offset="1" stop-color="#007DC6"/>
</linearGradient>
<linearGradient id="paint30_linear_22_1909" x1="91.8825" y1="204.374" x2="110.429" y2="204.374" gradientUnits="userSpaceOnUse">
<stop stop-color="#FC9D00"/>
<stop offset="0.5" stop-color="#F87707"/>
<stop offset="1" stop-color="#F3510F"/>
</linearGradient>
<linearGradient id="paint31_linear_22_1909" x1="160.21" y1="221.102" x2="165.622" y2="221.102" gradientUnits="userSpaceOnUse">
<stop stop-color="#FFD71D"/>
<stop offset="0.5" stop-color="#FEC50F"/>
<stop offset="1" stop-color="#FEB200"/>
</linearGradient>
<linearGradient id="paint32_linear_22_1909" x1="154.281" y1="224.509" x2="159.693" y2="224.509" gradientUnits="userSpaceOnUse">
<stop stop-color="#FFD71D"/>
<stop offset="0.5" stop-color="#FEC50F"/>
<stop offset="1" stop-color="#FEB200"/>
</linearGradient>
<linearGradient id="paint33_linear_22_1909" x1="148.775" y1="227.49" x2="154.187" y2="227.49" gradientUnits="userSpaceOnUse">
<stop stop-color="#FFD71D"/>
<stop offset="0.5" stop-color="#FEC50F"/>
<stop offset="1" stop-color="#FEB200"/>
</linearGradient>
<linearGradient id="paint34_linear_22_1909" x1="154.281" y1="250.909" x2="173.731" y2="250.909" gradientUnits="userSpaceOnUse">
<stop stop-color="#E4E61D"/>
<stop offset="0.5" stop-color="#A1D22E"/>
<stop offset="0.99" stop-color="#5FBD3F"/>
</linearGradient>
<linearGradient id="paint35_linear_22_1909" x1="141.999" y1="241.116" x2="152.309" y2="241.116" gradientUnits="userSpaceOnUse">
<stop stop-color="#E4E61D"/>
<stop offset="0.5" stop-color="#A1D22E"/>
<stop offset="0.99" stop-color="#5FBD3F"/>
</linearGradient>
<linearGradient id="paint36_linear_22_1909" x1="132.925" y1="239.349" x2="138.338" y2="239.349" gradientUnits="userSpaceOnUse">
<stop stop-color="#FFD71D"/>
<stop offset="0.5" stop-color="#FEC50F"/>
<stop offset="1" stop-color="#FEB200"/>
</linearGradient>
<linearGradient id="paint37_linear_22_1909" x1="126.996" y1="242.755" x2="132.409" y2="242.755" gradientUnits="userSpaceOnUse">
<stop stop-color="#FFD71D"/>
<stop offset="0.5" stop-color="#FEC50F"/>
<stop offset="1" stop-color="#FEB200"/>
</linearGradient>
<linearGradient id="paint38_linear_22_1909" x1="121.492" y1="245.736" x2="126.904" y2="245.736" gradientUnits="userSpaceOnUse">
<stop stop-color="#FFD71D"/>
<stop offset="0.5" stop-color="#FEC50F"/>
<stop offset="1" stop-color="#FEB200"/>
</linearGradient>
<linearGradient id="paint39_linear_22_1909" x1="126.996" y1="269.156" x2="146.447" y2="269.156" gradientUnits="userSpaceOnUse">
<stop stop-color="#E4E61D"/>
<stop offset="0.5" stop-color="#A1D22E"/>
<stop offset="0.99" stop-color="#5FBD3F"/>
</linearGradient>
<linearGradient id="paint40_linear_22_1909" x1="114.715" y1="259.362" x2="125.025" y2="259.362" gradientUnits="userSpaceOnUse">
<stop stop-color="#E4E61D"/>
<stop offset="0.5" stop-color="#A1D22E"/>
<stop offset="0.99" stop-color="#5FBD3F"/>
</linearGradient>
</defs>
</svg>
