<svg fill="none" height="392" viewBox="0 0 600 392" width="600" xmlns="http://www.w3.org/2000/svg" xmlns:xlink="http://www.w3.org/1999/xlink"><linearGradient id="a" gradientUnits="userSpaceOnUse" x1="294.288" x2="344.842" y1="207.401" y2="439.836"><stop offset=".01" stop-color="#d9e5f5"/><stop offset=".41" stop-color="#dbe2fa"/><stop offset="1" stop-color="#dddfff"/></linearGradient><linearGradient id="b"><stop offset="0" stop-color="#6956ab"/><stop offset=".41" stop-color="#867fc0"/><stop offset="1" stop-color="#a4a8d5"/></linearGradient><linearGradient id="c" gradientUnits="userSpaceOnUse" x1="120.657" x2="47.0037" xlink:href="#b" y1="369.379" y2="262.71"/><linearGradient id="d" gradientUnits="userSpaceOnUse" x1="125.132" x2="61.2877" xlink:href="#b" y1="380.575" y2="320.567"/><linearGradient id="e" gradientUnits="userSpaceOnUse" x1="93.3294" x2="121.71" y1="378.316" y2="358.641"><stop offset="0" stop-color="#666"/><stop offset=".41" stop-color="#414141"/><stop offset="1" stop-color="#1c1c1c"/></linearGradient><linearGradient id="f" gradientUnits="userSpaceOnUse" x1="476.854" x2="476.816" y1="329.031" y2="378.622"><stop offset="0" stop-color="#f1dbc1"/><stop offset=".41" stop-color="#eccdb7"/><stop offset="1" stop-color="#e7bfad"/></linearGradient><linearGradient id="g" gradientUnits="userSpaceOnUse" x1="476.673" x2="476.886" y1="341.592" y2="367.565"><stop offset="0" stop-color="#33c88e"/><stop offset=".41" stop-color="#21ae83"/><stop offset="1" stop-color="#0f9478"/></linearGradient><linearGradient id="h" gradientUnits="userSpaceOnUse" x1="468.07" x2="484.946" y1="358.397" y2="349.166"><stop offset=".01" stop-color="#c69c6d"/><stop offset=".41" stop-color="#a97f53"/><stop offset="1" stop-color="#8c6239"/></linearGradient><linearGradient id="i" gradientUnits="userSpaceOnUse" x1="373.039" x2="236.95" y1="278.033" y2="277.279"><stop offset="0" stop-color="#ffa866"/><stop offset=".41" stop-color="#ffa866"/><stop offset="1" stop-color="#ffa886"/></linearGradient><linearGradient id="j" gradientUnits="userSpaceOnUse" x1="382.98" x2="308.57" y1="164.153" y2="138.474"><stop offset="0" stop-color="#5e3434"/><stop offset=".41" stop-color="#4f2c2c"/><stop offset="1" stop-color="#3f2323"/></linearGradient><linearGradient id="k" gradientUnits="userSpaceOnUse" x1="147.492" x2="151.042" y1="283.203" y2="372.844"><stop offset="0" stop-color="#3997de"/><stop offset=".41" stop-color="#3574cd"/><stop offset="1" stop-color="#3150bc"/></linearGradient><clipPath id="l"><path d="m0 0h600v392h-600z"/></clipPath><g clip-path="url(#l)"><path d="m568.842 299.988c-8.662 49.888-30.318 72.185-36.283 77.411-.457 1.863-5.229.674-19.434 1.002-85.498-.001-440.0247.035-440.1532.035.0126.011-19.0247-25.352-23.2727-60.233-9.1181-74.243 25.1083-93.094 89.7489-104.175 38.932-8.683 77.594-35.459 97.453-76.994 13.548-32.098 41.638-56.6279 83.428-50.0212 61.543 13.8202 68.579 57.9352 117.115 94.2812 70.805 51.81 138.193 68.631 131.398 118.694z" fill="url(#a)"/><path d="m431.994 16.5519c100.951 105.9561 164.08 212.4111 79.339 262.9191-200.095 119.263-152.687 158.973-152.687 158.973s17.369 27.056 48.045-12.144c30.677-39.2 48.952-49.198 149.89-78.073 100.937-28.875 92.817-164.796 92.817-164.796m-328.195 275.465s15.789-118.452-113.685-119.731c-129.4733-1.278-203.45823-7.243-225.1124-88.626-21.6541-81.382 105.1309-44.549 221.9644 11.6 116.833 56.148 249.013 7.148 217.885-149.226-31.128-156.3738-209.098-174.9085-191.052-117.8129 18.045 57.0957 198.947 163.6169 114.897 239.1409-79.375 71.323-400.0102-239.1409-400.0102-239.1409" stroke="#fff" stroke-miterlimit="10" stroke-width="3.63684"/><path d="m321.203 458.896s15.789-118.452-113.685-119.731c-129.4733-1.278-203.45823-7.243-225.1124-88.626-21.6541-81.382 105.1309-44.549 221.9644 11.6 116.833 56.148 249.013 7.148 217.885-149.226-31.128-156.3738-209.098-174.9085-191.052-117.8129 18.045 57.0957 198.947 163.6169 114.897 239.1409-79.375 71.323-400.0102-239.1409-400.0102-239.1409" stroke="#fff" stroke-miterlimit="10" stroke-width="3.63684"/><path d="m31.1055 250.766c-8.638 10.279-17.5332 62.506 19.4671 71.095 0 0 14.9403 3.746 17.8157 21.427 2.8759 17.681 28.1749 47.086 57.9537 30.925 29.779-16.161 17.053-54.899 3.438-66.976-13.614-12.078-11.599-12.365-18.794-24.907-7.194-12.541-7.943-13.339-15.3033-10.63-7.3609 2.71-1.2511 19.778 6.1363 29.276 7.387 9.499-.962 15.214-4.0523 13.544-3.0895-1.669-5.4091-15.51-22.0866-17.049s-17.9605-19.145-18.9279-29.109c-.3905-4.026-1.6469-7.779-3.0047-10.825-.8846.761-1.9924 1.195-3.1725 1.14-2.6391-.123-4.6258-2.637-4.4374-5.617.1064-1.681.8841-3.151 2.0153-4.09-1.5647-1.151-4.336-2.79-7.5831-2.942-2.9453-.137-6.281.95-9.4643 4.738z" fill="url(#c)"/><path d="m132.385 370.11c-1.545-3.325-3.433-6.471-5.958-9.642-4.4-9.193-5.056-17.764-5.693-26.122-.788-10.319-1.531-20.066-8.935-30.3-11.116-15.362-12.3105-27.931-12.1683-33.493-.5045.08-1.0481.212-1.639.386-.12 5.971 1.2936 18.508 12.4913 33.983 7.161 9.896 7.889 19.444 8.66 29.552.545 7.148 1.102 14.448 3.936 22.172-8.455-8.84-22.62-18.492-48.6922-33.197-25.6011-14.439-34.2502-35.454-36.9978-50.54-2.0955-11.504-1.1796-21.403-.4355-26.335-.5665.188-1.1383.43-1.7127.742-.7231 5.296-1.423 14.845.5656 25.811 2.7962 15.417 11.6168 36.891 37.7565 51.635 29.7171 16.761 43.7651 27.019 51.4041 36.349 1.55 3.233 3.551 6.546 6.165 9.958l.012-.008c.004.008.008.017.012.026.423-.317.835-.639 1.235-.968z" fill="#690058" opacity=".34"/><path d="m23.8328 257.361c-10.8726 11.302 7.161 29.584 22.7312 37.44 15.5708 7.856 23.2649 15.056 31.1252 52.479 7.8606 37.423 38.0138 32.608 44.7808 30.272 6.766-2.336 18.034-21.233 8.06-45.405-9.975-24.173-25.059-23.14-24.344-52.068s-19.2341-18.001-24.8608-7.179c-5.6266 10.822-11.1005 9.604-21.4399-1.478-3.3356-3.575-5.9457-6.3-7.9565-8.357-.0705 1.322-.2527 2.573-.6426 3.644-.2615.719-.7515 1.291-1.3656 1.67-.8946.552-2.0525.695-3.1495.289-1.8521-.685-2.8327-2.672-2.19-4.439.4837-1.331.2476-4.676.091-6.888-.0315-.442-.06-.856-.0853-1.252-2.4075-1.803-7.3561-4.708-12.9766-3.428-2.5139.572-5.1613 1.981-7.7774 4.7z" fill="url(#d)"/><path d="m91.6466 262.928c-1.7521 10.575-5.735 44.107 7.4618 75.117-2.7731-4.491-5.6283-9.533-8.5107-15.19-19.3177-37.902-59.2929-57.935-68.9314-62.327-.2269.458-.428.921-.585 1.393 9.528 4.344 49.0381 24.15 68.1083 61.569 16.0534 31.496 31.1874 44.589 38.4984 49.491.301-.397.598-.817.891-1.258-2.174-1.469-5.092-3.702-8.554-6.996-3.762-3.579-8.563-8.814-13.916-16.2-20.191-34.272-14.5379-76.074-12.7413-86.287-.5738.189-1.1489.421-1.7211.688z" fill="#690058" opacity=".34"/><path d="m112.503 366.268-2.517 1.139-47.1803-93.08 27.84-49.1 2.4586 1.244-27.1719 47.923z" fill="#253138"/><path d="m61.0724 276.387c1.1855 1.72 3.623 2.207 5.4437 1.087 1.8212-1.12 2.336-3.422 1.1504-5.142-1.186-1.72-3.623-2.206-5.4442-1.085-1.8208 1.119-2.3355 3.421-1.1499 5.14z" fill="#2d3092"/><path d="m88.1165 228.16c1.1855 1.72 3.6225 2.207 5.4433 1.087 1.8212-1.12 2.3364-3.422 1.1503-5.142-1.1855-1.72-3.6234-2.206-5.4442-1.087-1.8207 1.12-2.335 3.422-1.1494 5.142z" fill="#2d3092"/><path d="m116.697 223.147-13.368 22.929-10.6894-7.886-3.1994-2.364c-1.9083-1.41-2.4514-3.919-1.2812-5.923l5.9684-10.222c1.1694-2.003 3.7056-2.909 5.9856-2.138l3.824 1.293z" fill="#00a0ed"/><path d="m116.697 223.147-13.368 22.928-10.6894-7.885 11.2974-19.354z" fill="#0000c6" fill-opacity=".2"/><path d="m142.778 230.824-18.65 31.971c-1.217 2.087-4.134 2.629-6.097 1.133l-15.281-11.645c-4.6099-3.513-5.8866-9.644-3.0278-14.545l7.5898-13.012c2.859-4.9 9.028-7.157 14.636-5.354l18.585 5.979c2.388.767 3.462 3.386 2.245 5.473z" fill="#00a0ed"/><path d="m134.665 375.46h-47.7109c1.7008-8.222 9.3289-14.155 18.1999-14.155h11.312c8.87 0 16.499 5.933 18.199 14.155z" fill="url(#e)"/><path d="m494.133 330.4-3.912 46.458h-27.061l-3.912-46.458z" fill="url(#f)"/><path d="m460.233 342.157 2.148 25.506h28.621l2.147-25.499z" fill="url(#g)"/><path d="m466.848 355.019c0 4.91 4.206 8.889 9.394 8.889 5.189 0 9.395-3.979 9.395-8.889 0-4.909-4.206-8.889-9.395-8.889-5.188 0-9.394 3.98-9.394 8.889z" fill="url(#h)"/><g fill="#e3ebf7" opacity=".66"><path d="m474.681 356.511c.644-.609.801-1.034.983-1.525.204-.552.435-1.177 1.285-1.981.851-.803 1.513-1.021 2.097-1.214.381-.125.725-.239 1.134-.529-.869-.751-2.071-1.072-3.405-.905-1.335.167-2.651.808-3.708 1.806s-1.735 2.241-1.912 3.502c-.129.921.018 1.774.416 2.488.574-.41 1.056-.569 1.495-.714.521-.172.97-.32 1.615-.928z"/><path d="m479.466 352.929c-.521.171-.971.319-1.615.928-.645.609-.801 1.034-.983 1.526-.204.551-.435 1.177-1.286 1.98-.85.803-1.512 1.021-2.096 1.214-.382.126-.725.239-1.135.53.719.62 1.666.948 2.727.948.222 0 .448-.015.679-.044 1.334-.167 2.651-.808 3.707-1.805 1.057-.998 1.736-2.242 1.913-3.503.129-.92-.018-1.775-.417-2.488-.573.41-1.055.569-1.494.714z"/></g><path d="m495.33 333.677h-37.873c-.525 0-.951-.402-.951-.898v-4.976c0-.496.426-.899.951-.899h37.873c.525 0 .951.403.951.899v4.976c0 .496-.426.898-.951.898z" fill="#fff"/><path d="m493.556 326.904h-34.324l1.636-4.782c.221-.646.857-1.083 1.575-1.083h27.902c.718 0 1.354.437 1.575 1.083z" fill="#f8ede0"/><path d="m480.591 323.627h-7.697c-.75 0-1.357-.574-1.357-1.281v-1.307h10.411v1.307c0 .707-.607 1.281-1.357 1.281z" fill="#e7ccac"/><path d="m481.128 283.286c2.266 7.847 6.095 8.823 8.006 12.946 2.505 5.455 1.091 14.226-1.454 17.125-.299-5.271 1.277-7.899-2.648-15.708-3.158-6.343-4.629-6.772-3.904-14.363z" fill="#fff" fill-opacity=".7"/><path d="m463.392 279.234c2.265 7.847 6.094 8.823 8.006 12.946 2.505 5.455 1.091 14.226-1.454 17.125-.3-5.271 1.277-7.899-2.648-15.708-3.158-6.343-4.63-6.772-3.904-14.363z" fill="#fff" fill-opacity=".7"/><path d="m471.384 278.177c2.778 9.626 7.476 10.824 9.82 15.881 3.073 6.692 1.338 17.452-1.784 21.007-.367-6.465 1.567-9.689-3.248-19.269-3.873-7.78-5.679-8.307-4.788-17.619z" fill="#fff" fill-opacity=".7"/><path d="m336.926 228.156s-25.895 5.898-41.777 17.695c-15.882 11.796-26.79 71.76-26.79 71.76s-8.868 1.966-7.285 9.831c0 0 14.82-1.908 22.501 13.093 1.874 3.637 3.31 8.277 4.018 14.176 0 0 7.827-.472 8.326-6.882 0 0 7.036-6.645 8.764-19.208.041-.236.083-.452.104-.688 0 0 .78 34.327-3.133 47.185l109.568.071 22.862-.071s2.157-6.295.948-10.465c0 0 8.041-10.475-.147-23.133 0 0 1.812-71.35-8.596-88.296-10.408-16.948-62.698-26.778-62.698-26.778z" fill="url(#i)"/><path d="m304.556 328.535c-1.728 12.562-8.764 19.208-8.764 19.208-.499 6.409-8.326 6.881-8.326 6.881-.708-5.898-2.144-10.538-4.018-14.175 4.143-3.775 8.847-9.614 11.574-18.166 5.516-17.223 1.998-35.94 1.748-37.276 4.497 16.102 6.953 35.86 7.786 43.528z" fill="#3050bb" fill-opacity=".3"/><path d="m434.759 341.433s-23.032-12.062-39.351-.65c.57-11.742.36-38.101-10.357-61.842 0 0 2.341 48.168-18.475 61.684-20.815 13.517-56.202 10.813-65.049 34.406h132.43c1.316-4.136 1.526-7.685.948-10.465 0 0 8.041-9.383-.146-23.133z" fill="#3050bb" fill-opacity=".3"/><g fill="#fccabf"><path d="m372.524 361.285s23.584-15.582 48.941-10.026c22.6 4.953 18.696 20.39 12.493 23.772h-63.384z"/><path d="m374.14 361.522s-10.439-6.427-18.76-13.587c-.857-.737-1.982-1.119-3.143-1.069-4.322.186-15.328.77-23.031 2.123-1 .176-1.755 1.007-1.787 1.98-.038 1.177.109 2.778.942 4.147 0 0 1.812 2.13 4.383 3.607 0 0-1.09 1.392-1.194 2.088s.686 3.022 1.918 3.629c0 0-.465.653-.307 1.805.158 1.153 1.187 2.87 2.11 3.087s2.64.28 2.64.28-.864 1.349-.86 2.305c.003.957 1.533 2.522 2.59 2.825 1.057.304 8.551-.179 10.006-.572 1.455-.392 4.616-3.59 4.616-3.59s10.958 5.102 20.123 4.748z"/><path d="m327.823 354.221 11.504-.905s-4.345 3.222-6.729 5.32c0 0-4.292-2.535-4.775-4.415z"/><path d="m354.366 370.443-4.032-1.603-5.7 3.48s4.806-2.827 8.989-1.155z"/><path d="m355.329 348s-3.701 10.864.425 16.004c4.126 5.139 18.652 11.357 18.652 11.357s-.12-6.693-.245-13.722c0 0-12.94-8.359-18.832-13.639z"/><path d="m333.519 364.184 9.703-6.499c.277-.186.655-.124.843.139s.115.627-.162.813c-.015.01-.031.019-.046.028l-10.244 5.664c-.043.025-.098.01-.122-.031-.023-.039-.01-.089.028-.114z"/><path d="m337.898 369.413 9.114-6.591c.272-.196.655-.147.855.11.2.258.14.626-.133.823-.015.012-.031.023-.048.033l-9.716 5.727c-.032.018-.071.009-.089-.02-.017-.028-.009-.063.017-.082z"/><path d="m260.948 327.723-34.4 41.707 33.582-.093 27.337-14.345s6.004-29.349-26.519-27.269z"/></g><path d="m252.748 369.019c-.239.028-22.449.818-22.449.818s-1.893-11.694-1.562-11.635c.332.059 17.429-3.287 18.334-3.166s7.445 12.702 7.445 12.702z" fill="#494949"/><path d="m256.169 363.776-4.648 1.771c-1.532.583-2.386 2.133-2.013 3.653.237.967 1.246 1.579 2.276 1.38l4.376-.846 1.639-.239c.794-.116 1.443-.657 1.662-1.387.294-.978.659-2.241.671-2.515.019-.461-3.638-9.424-3.638-9.424z" fill="#fccabf"/><path d="m228.623 354.194 1.057-.227c.526-.114.999-.385 1.348-.773l1.156-1.286c.486-.541 1.204-.846 1.955-.83l1.413.028c.772.016 1.508-.308 1.994-.875l.686-.803c.542-.634 1.394-.958 2.251-.857l2.755.327c.442.052.89-.008 1.299-.174l3.362-1.369s8.532 2.72 8.996 11.6l-.435 4.111c-.102.956-.857 1.736-1.856 1.914l-3.362.604c-.763.137-1.511-.3-1.722-1.006l-1.679-5.608 1.009 5.685c.179 1.009-.5 1.976-1.553 2.213l-2.63.592c-1.118.251-2.237-.41-2.486-1.469l-1.664-7.061.984 7.334c.131.972-.597 1.86-1.627 1.983l-2.476.297c-.868.104-1.686-.405-1.928-1.199l-2.459-8.072 1.758 8.006c.173.786-.321 1.567-1.136 1.795l-2.118.594c-.924.26-1.897-.226-2.192-1.091l-3.041-8.933c-.292-.858-.276-1.783.046-2.631l.501-1.317c.287-.757.964-1.323 1.794-1.502z" fill="#fccabf"/><path d="m368.307 229.352c-4.371 12.561-11.542 29.852-27.352 29.487-13.805-.318-11.641-15.923-8.704-24.462.436-1.269.15-.553.48-1.394-1.465-7.978-1.98-16.192-2.712-24.299 12.384-4.997 24.803-9.817 37.121-15.018.047 1.836.056 1.928.066 3.955.009 2.027-.028-3.775-.004 1.299.025 5.074.2 22.764 1.105 30.432z" fill="#fccabf"/><path d="m332.409 233.76c-.077.469.219-.609.307-.733-1.43-8.076-1.973-16.211-2.697-24.344 12.401-5.024 24.769-9.76 37.149-15.064 0 0 .41.277-.512 6.243-1.966 8.507-12.179 40.434-34.247 33.898z" fill="#a7a7a7"/><path d="m312.964 125.322c-1 3.243-2.3 9.157.077 12.728-5.109-3.05-4.282-3.138-8.257-6.782-4.315-3.955-5.636 17.309-4.861 21.041s1.57 14.779 7.349 16.857c1.749 8.501 6.849 14.956 11.882 18.502 6.884 4.85 19.954 4.948 31.845 4.969 5.089.009 9.961.004 14.041.351.856-.819 1.649-1.516 2.408-2.154-.017 1.303.053 2.523.349 2.806.693.663.194 8.717.194 8.717s3.2-7.261 3.411-10.986c.103-1.813.177-3.105.225-3.958 1.24-1.061 2.522-2.265 3.979-3.912 3.61-4.077 6.953-11.476 8.784-17.341.363 2.165.51 3.758.51 3.758 1.327-8.018 1.308-11.744.935-13.455-.375-2.436-1.711-4.393-4.789-5.195 4.703-5.653-.777-15.598-.777-15.598.293 2.508-.248 5.386-.886 7.692-.221-1.944-.654-3.813-2.04-5.635-3.555-7.097-19.232-10.379-19.232-10.379.944.391 2.604 1.897 4.373 3.701-6.733-.722-14.621.114-22.26 2.026-7.363 1.844-19.708-5.578-24.483-8.715-.277-.182-.583-.278-.89-.298-.815-.053-1.631.431-1.887 1.26z" fill="url(#j)"/><path d="m366.483 188.68c-5.383-5.513-6.476-15.511-1.47-19.793-7.009 5.996-24.726 2.742-24.726 2.742s4.387-1.26 5.689-5.263c0 0-20.406 2.403-24.369 4.654 0 0 .049-3.672 4.205-6.484-5.146.055-9.384.817-9.876 3.107-1.318 6.133-.567 42.449 11.386 51.759 11.954 9.31 27.546-2.964 33.746-9.122 6.2-6.159 3.946-8.685 7.512-14.061 4.723-1.414 6.487-.66 8.177-8.918 1.689-8.258-5.627-11.249-10.274 1.379z" fill="#fccabf"/><path d="m285.201 369.337h-119.156c-.72 0-1.303.552-1.303 1.232v3.671c0 .68.583 1.231 1.303 1.231h119.156c.72 0 1.303-.551 1.303-1.231v-3.671c0-.68-.583-1.232-1.303-1.232z" fill="#182960"/><path d="m196.632 284.967h-101.0061c-4.5712 0-7.7133 4.377-6.0532 8.432l29.5033 72.087c.972 2.375 3.375 3.94 6.053 3.94h104.571c2.857 0 4.82-2.735 3.783-5.269l-30.798-75.25c-.972-2.375-3.375-3.94-6.053-3.94z" fill="#42aaff"/><path d="m94.9897 286.715c-4.5126 0-7.6141 4.285-5.9756 8.257l29.1259 70.592c.959 2.326 3.332 3.858 5.975 3.858h103.233c2.82 0 4.758-2.679 3.734-5.161l-30.403-73.688c-.96-2.326-3.332-3.858-5.976-3.858z" fill="url(#k)"/><path d="m164.608 328.719c2.424 5.575 1.081 11.377-2.998 12.96-4.08 1.582-9.352-1.655-11.776-7.23s-1.082-11.378 2.997-12.96c4.08-1.583 9.353 1.654 11.777 7.23z" fill="#e3ebf7" opacity=".66"/><path d="m232.466 369.337h-109.715c-.716 0-1.297.549-1.297 1.225v3.684c0 .676.581 1.225 1.297 1.225h109.715c.716 0 1.297-.549 1.297-1.225v-3.684c0-.676-.581-1.225-1.297-1.225z" fill="#3756c2"/><path d="m556.782 381.999h-506.866v-6.6h506.866zm0 0h-112.406v-6.6h112.406z" fill="#29c3ff"/><path d="m556.783 381.999h-112.406v-6.6h112.406z" fill="#299fff"/><path d="m407.081 369.993h-106.854v5.406h106.854zm-32.958 0h32.959v5.406h-32.959z" fill="#abdaf7"/><path d="m374.123 369.993h32.959v5.406h-32.959z" fill="#6fb1dd"/></g></svg>