<svg width="12" height="12" viewBox="0 0 12 12" fill="none" xmlns="http://www.w3.org/2000/svg">
<path d="M6 4.99994C6.22981 4.99994 6.45738 4.95467 6.6697 4.86673C6.88202 4.77878 7.07493 4.64988 7.23744 4.48738C7.39994 4.32487 7.52884 4.13195 7.61679 3.91963C7.70473 3.70732 7.75 3.47975 7.75 3.24994C7.75 3.02013 7.70473 2.79256 7.61679 2.58024C7.52884 2.36792 7.39994 2.175 7.23744 2.0125C7.07493 1.85 6.88202 1.7211 6.6697 1.63315C6.45738 1.5452 6.22981 1.49994 6 1.49994C5.53587 1.49994 5.09075 1.68431 4.76256 2.0125C4.43437 2.34069 4.25 2.78581 4.25 3.24994C4.25 3.71407 4.43437 4.15919 4.76256 4.48738C5.09075 4.81556 5.53587 4.99994 6 4.99994V4.99994ZM1.5 10.1999V10.4999H10.5V10.1999C10.5 9.07994 10.5 8.51994 10.282 8.09194C10.0903 7.71563 9.78431 7.40968 9.408 7.21794C8.98 6.99994 8.42 6.99994 7.3 6.99994H4.7C3.58 6.99994 3.02 6.99994 2.592 7.21794C2.21569 7.40968 1.90974 7.71563 1.718 8.09194C1.5 8.51994 1.5 9.07994 1.5 10.1999Z" stroke="white" stroke-width="0.694444" stroke-linecap="round" stroke-linejoin="round"/>
</svg>
