<svg width="12" height="12" viewBox="0 0 12 12" fill="none" xmlns="http://www.w3.org/2000/svg">
<path d="M0 1.5C0 1.10218 0.158035 0.720644 0.43934 0.43934C0.720644 0.158035 1.10218 0 1.5 0L10.5 0C10.8978 0 11.2794 0.158035 11.5607 0.43934C11.842 0.720644 12 1.10218 12 1.5V10.5C12 10.8978 11.842 11.2794 11.5607 11.5607C11.2794 11.842 10.8978 12 10.5 12H1.5C1.10218 12 0.720644 11.842 0.43934 11.5607C0.158035 11.2794 0 10.8978 0 10.5V1.5ZM11.25 3H8.25V5.25H11.25V3ZM11.25 6H8.25V8.25H11.25V6ZM11.25 9H8.25V11.25H10.5C10.6989 11.25 10.8897 11.171 11.0303 11.0303C11.171 10.8897 11.25 10.6989 11.25 10.5V9ZM7.5 11.25V9H4.5V11.25H7.5ZM3.75 11.25V9H0.75V10.5C0.75 10.6989 0.829018 10.8897 0.96967 11.0303C1.11032 11.171 1.30109 11.25 1.5 11.25H3.75ZM0.75 8.25H3.75V6H0.75V8.25ZM0.75 5.25H3.75V3H0.75V5.25ZM4.5 3V5.25H7.5V3H4.5ZM7.5 6H4.5V8.25H7.5V6Z" fill="white"/>
</svg>
