<svg width="12" height="12" viewBox="0 0 12 12" fill="none" xmlns="http://www.w3.org/2000/svg">
<g clip-path="url(#clip0_110_181)">
<path d="M2.2275 1.0125C2.29791 0.930176 2.38533 0.864083 2.48373 0.818768C2.58212 0.773454 2.68917 0.749993 2.7975 0.75H9.2025C9.31083 0.749993 9.41788 0.773454 9.51627 0.818768C9.61467 0.864083 9.70208 0.930176 9.7725 1.0125L11.7292 3.2955C11.904 3.49937 12 3.75901 12 4.0275V4.21875C12 4.58998 11.8841 4.95195 11.6684 5.25407C11.4526 5.55618 11.1479 5.78335 10.7968 5.90381C10.4456 6.02427 10.0656 6.03201 9.70985 5.92595C9.35409 5.81989 9.04036 5.60533 8.8125 5.31225C8.64611 5.52658 8.43287 5.69998 8.18913 5.81919C7.94538 5.9384 7.67759 6.00025 7.40625 6C7.13491 6.0003 6.86709 5.93848 6.62334 5.81927C6.37958 5.70005 6.16636 5.52662 6 5.31225C5.83364 5.52662 5.62042 5.70005 5.37666 5.81927C5.13291 5.93848 4.86509 6.0003 4.59375 6C4.32241 6.0003 4.05459 5.93848 3.81084 5.81927C3.56708 5.70005 3.35386 5.52662 3.1875 5.31225C2.95964 5.60533 2.64591 5.81989 2.29015 5.92595C1.93439 6.03201 1.55439 6.02427 1.20324 5.90381C0.852099 5.78335 0.547367 5.55618 0.331637 5.25407C0.115906 4.95195 -4.09489e-05 4.58998 1.08484e-08 4.21875V4.0275C9.45565e-06 3.75901 0.0960425 3.49937 0.27075 3.2955L2.22825 1.01175L2.2275 1.0125ZM3.5625 4.21875C3.5625 4.49225 3.67115 4.75456 3.86455 4.94795C4.05794 5.14135 4.32025 5.25 4.59375 5.25C4.86725 5.25 5.12956 5.14135 5.32295 4.94795C5.51635 4.75456 5.625 4.49225 5.625 4.21875C5.625 4.11929 5.66451 4.02391 5.73484 3.95359C5.80516 3.88326 5.90054 3.84375 6 3.84375C6.09946 3.84375 6.19484 3.88326 6.26517 3.95359C6.33549 4.02391 6.375 4.11929 6.375 4.21875C6.375 4.49225 6.48365 4.75456 6.67705 4.94795C6.87044 5.14135 7.13275 5.25 7.40625 5.25C7.67975 5.25 7.94206 5.14135 8.13545 4.94795C8.32885 4.75456 8.4375 4.49225 8.4375 4.21875C8.4375 4.11929 8.47701 4.02391 8.54733 3.95359C8.61766 3.88326 8.71304 3.84375 8.8125 3.84375C8.91196 3.84375 9.00734 3.88326 9.07767 3.95359C9.14799 4.02391 9.1875 4.11929 9.1875 4.21875C9.1875 4.49225 9.29615 4.75456 9.48955 4.94795C9.68294 5.14135 9.94525 5.25 10.2188 5.25C10.4923 5.25 10.7546 5.14135 10.948 4.94795C11.1414 4.75456 11.25 4.49225 11.25 4.21875V4.0275C11.25 3.93812 11.2181 3.85168 11.16 3.78375L9.2025 1.5H2.7975L0.84 3.78375C0.78191 3.85168 0.749993 3.93812 0.75 4.0275V4.21875C0.75 4.49225 0.858649 4.75456 1.05205 4.94795C1.24544 5.14135 1.50775 5.25 1.78125 5.25C2.05475 5.25 2.31706 5.14135 2.51045 4.94795C2.70385 4.75456 2.8125 4.49225 2.8125 4.21875C2.8125 4.11929 2.85201 4.02391 2.92234 3.95359C2.99266 3.88326 3.08804 3.84375 3.1875 3.84375C3.28696 3.84375 3.38234 3.88326 3.45266 3.95359C3.52299 4.02391 3.5625 4.11929 3.5625 4.21875V4.21875ZM1.125 6.375C1.22446 6.375 1.31984 6.41451 1.39017 6.48483C1.46049 6.55516 1.5 6.65054 1.5 6.75V11.25H10.5V6.75C10.5 6.65054 10.5395 6.55516 10.6098 6.48483C10.6802 6.41451 10.7755 6.375 10.875 6.375C10.9745 6.375 11.0698 6.41451 11.1402 6.48483C11.2105 6.55516 11.25 6.65054 11.25 6.75V11.25H11.625C11.7245 11.25 11.8198 11.2895 11.8902 11.3598C11.9605 11.4302 12 11.5255 12 11.625C12 11.7245 11.9605 11.8198 11.8902 11.8902C11.8198 11.9605 11.7245 12 11.625 12H0.375C0.275544 12 0.180161 11.9605 0.109835 11.8902C0.0395088 11.8198 1.08484e-08 11.7245 1.08484e-08 11.625C1.08484e-08 11.5255 0.0395088 11.4302 0.109835 11.3598C0.180161 11.2895 0.275544 11.25 0.375 11.25H0.75V6.75C0.75 6.65054 0.789509 6.55516 0.859835 6.48483C0.930161 6.41451 1.02554 6.375 1.125 6.375V6.375ZM2.625 6.75C2.72446 6.75 2.81984 6.78951 2.89016 6.85983C2.96049 6.93016 3 7.02554 3 7.125V9.75H9V7.125C9 7.02554 9.03951 6.93016 9.10983 6.85983C9.18016 6.78951 9.27554 6.75 9.375 6.75C9.47446 6.75 9.56984 6.78951 9.64017 6.85983C9.71049 6.93016 9.75 7.02554 9.75 7.125V9.75C9.75 9.94891 9.67098 10.1397 9.53033 10.2803C9.38968 10.421 9.19891 10.5 9 10.5H3C2.80109 10.5 2.61032 10.421 2.46967 10.2803C2.32902 10.1397 2.25 9.94891 2.25 9.75V7.125C2.25 7.02554 2.28951 6.93016 2.35984 6.85983C2.43016 6.78951 2.52554 6.75 2.625 6.75Z" fill="white"/>
</g>
<defs>
<clipPath id="clip0_110_181">
<rect width="12" height="12" fill="white"/>
</clipPath>
</defs>
</svg>
