<svg width="12" height="10" viewBox="0 0 12 10" fill="none" xmlns="http://www.w3.org/2000/svg">
<path d="M2.6999 2.45012C2.6999 2.09208 2.84213 1.7487 3.09531 1.49553C3.34848 1.24235 3.69186 1.10012 4.0499 1.10012C4.40794 1.10012 4.75132 1.24235 5.0045 1.49553C5.25767 1.7487 5.3999 2.09208 5.3999 2.45012C5.3999 2.80816 5.25767 3.15154 5.0045 3.40472C4.75132 3.65789 4.40794 3.80012 4.0499 3.80012C3.69186 3.80012 3.34848 3.65789 3.09531 3.40472C2.84213 3.15154 2.6999 2.80816 2.6999 2.45012V2.45012ZM4.0499 0.500122C3.53273 0.500122 3.03674 0.705568 2.67104 1.07126C2.30535 1.43696 2.0999 1.93295 2.0999 2.45012C2.0999 2.96729 2.30535 3.46328 2.67104 3.82898C3.03674 4.19468 3.53273 4.40012 4.0499 4.40012C4.56707 4.40012 5.06306 4.19468 5.42876 3.82898C5.79446 3.46328 5.9999 2.96729 5.9999 2.45012C5.9999 1.93295 5.79446 1.43696 5.42876 1.07126C5.06306 0.705568 4.56707 0.500122 4.0499 0.500122V0.500122ZM5.9999 5.00012C6.31243 5 6.61267 5.1218 6.83677 5.33963C7.06087 5.55746 7.19115 5.85412 7.1999 6.16652L6.3503 7.01552C6.48319 6.79647 6.56711 6.55126 6.5963 6.29672C6.5981 6.27392 6.5993 6.25712 6.5993 6.24692L6.5999 6.23672V6.20012C6.5999 6.04099 6.53669 5.88838 6.42417 5.77586C6.31164 5.66334 6.15903 5.60012 5.9999 5.60012H2.0999C1.94077 5.60012 1.78816 5.66334 1.67564 5.77586C1.56312 5.88838 1.4999 6.04099 1.4999 6.20012V6.24692L1.5041 6.29672C1.53661 6.58435 1.63921 6.8596 1.8029 7.09832C2.0951 7.52072 2.7077 8.00012 4.0499 8.00012C4.9859 8.00012 5.5673 7.76672 5.9321 7.48232C5.8067 7.66832 5.7143 7.87412 5.6597 8.09312L5.5961 8.34812C5.1869 8.50412 4.6787 8.60012 4.0499 8.60012C2.5421 8.60012 1.7297 8.04812 1.3091 7.43972C1.0876 7.11708 0.949482 6.74458 0.907102 6.35552C0.903517 6.32061 0.901116 6.28559 0.899902 6.25052V6.20012C0.899902 5.88186 1.02633 5.57664 1.25137 5.35159C1.47642 5.12655 1.78164 5.00012 2.0999 5.00012H5.9999ZM10.1999 2.90012C10.1999 3.29795 10.0419 3.67948 9.76056 3.96078C9.47926 4.24209 9.09773 4.40012 8.6999 4.40012C8.30208 4.40012 7.92055 4.24209 7.63924 3.96078C7.35794 3.67948 7.1999 3.29795 7.1999 2.90012C7.1999 2.5023 7.35794 2.12077 7.63924 1.83946C7.92055 1.55816 8.30208 1.40012 8.6999 1.40012C9.09773 1.40012 9.47926 1.55816 9.76056 1.83946C10.0419 2.12077 10.1999 2.5023 10.1999 2.90012V2.90012ZM7.7999 2.90012C7.7999 3.13882 7.89472 3.36774 8.06351 3.53652C8.23229 3.7053 8.46121 3.80012 8.6999 3.80012C8.9386 3.80012 9.16752 3.7053 9.3363 3.53652C9.50508 3.36774 9.5999 3.13882 9.5999 2.90012C9.5999 2.66143 9.50508 2.43251 9.3363 2.26373C9.16752 2.09494 8.9386 2.00012 8.6999 2.00012C8.46121 2.00012 8.23229 2.09494 8.06351 2.26373C7.89472 2.43251 7.7999 2.66143 7.7999 2.90012V2.90012ZM9.4859 4.72892L6.5879 7.62692C6.419 7.79574 6.29913 8.00727 6.2411 8.23892L6.0161 9.13772C5.99391 9.22711 5.99522 9.32073 6.0199 9.40946C6.04458 9.4982 6.0918 9.57904 6.15695 9.64414C6.22211 9.70924 6.303 9.75637 6.39176 9.78097C6.48052 9.80557 6.57413 9.80679 6.6635 9.78452L7.5623 9.56012C7.79398 9.50218 8.00554 9.38229 8.1743 9.21332L11.0723 6.31532C11.28 6.10432 11.3959 5.81978 11.3946 5.52371C11.3934 5.22765 11.2753 4.94406 11.0659 4.73474C10.8565 4.52543 10.5729 4.40737 10.2768 4.40628C9.98073 4.40518 9.69623 4.52116 9.4853 4.72892H9.4859Z" fill="white"/>
</svg>
