<svg width="12" height="12" viewBox="0 0 12 12" fill="none" xmlns="http://www.w3.org/2000/svg">
<path d="M1.99976 9.50003V4.00003H9.99975V5.64503C10.3598 5.75503 10.6998 5.91503 10.9998 6.13003V4.00003C10.9998 3.44503 10.5548 3.00003 9.99975 3.00003H7.99976V2.00003C7.99976 1.44503 7.55476 1.00003 6.99976 1.00003H4.99976C4.44476 1.00003 3.99976 1.44503 3.99976 2.00003V3.00003H1.99976C1.44476 3.00003 1.00476 3.44503 1.00476 4.00003L0.999756 9.50003C0.999756 10.055 1.44476 10.5 1.99976 10.5H5.83976C5.68976 10.19 5.58976 9.85503 5.53976 9.50003H1.99976ZM4.99976 2.00003H6.99976V3.00003H4.99976V2.00003Z" fill="white"/>
<path d="M9 6.50018C7.62 6.50018 6.5 7.62018 6.5 9.00018C6.5 10.3802 7.62 11.5002 9 11.5002C10.38 11.5002 11.5 10.3802 11.5 9.00018C11.5 7.62018 10.38 6.50018 9 6.50018ZM9.825 10.1752L8.75 9.10018V7.50018H9.25V8.89518L10.175 9.82018L9.825 10.1752V10.1752Z" fill="white"/>
</svg>
